  0
SECTION
  2
HEADER
  9
$ACADVER
  1
AC1024
  9
$ACADMAINTVER
 70
     6
  9
$DWGCODEPAGE
  3
ANSI_1252
  9
$INSBASE
 10
0.0
 20
0.0
 30
0.0
  9
$EXTMIN
 10
1.000000000000000E+20
 20
1.000000000000000E+20
 30
1.000000000000000E+20
  9
$EXTMAX
 10
-1.000000000000000E+20
 20
-1.000000000000000E+20
 30
-1.000000000000000E+20
  9
$LIMMIN
 10
0.0
 20
0.0
  9
$LIMMAX
 10
12.0
 20
9.0
  9
$ORTHOMODE
 70
     0
  9
$REGENMODE
 70
     1
  9
$FILLMODE
 70
     1
  9
$QTEXTMODE
 70
     0
  9
$MIRRTEXT
 70
     1
  9
$LTSCALE
 40
1.0
  9
$ATTMODE
 70
     1
  9
$TEXTSIZE
 40
0.2
  9
$TRACEWID
 40
0.05
  9
$TEXTSTYLE
  7
Standard
  9
$CLAYER
  8
0
  9
$CELTYPE
  6
ByLayer
  9
$CECOLOR
 62
   256
  9
$CELTSCALE
 40
1.0
  9
$DISPSILH
 70
     0
  9
$DIMSCALE
 40
1.0
  9
$DIMASZ
 40
0.18
  9
$DIMEXO
 40
0.0625
  9
$DIMDLI
 40
0.38
  9
$DIMRND
 40
0.0
  9
$DIMDLE
 40
0.0
  9
$DIMEXE
 40
0.18
  9
$DIMTP
 40
0.0
  9
$DIMTM
 40
0.0
  9
$DIMTXT
 40
0.18
  9
$DIMCEN
 40
0.09
  9
$DIMTSZ
 40
0.0
  9
$DIMTOL
 70
     0
  9
$DIMLIM
 70
     0
  9
$DIMTIH
 70
     1
  9
$DIMTOH
 70
     1
  9
$DIMSE1
 70
     0
  9
$DIMSE2
 70
     0
  9
$DIMTAD
 70
     0
  9
$DIMZIN
 70
     0
  9
$DIMBLK
  1

  9
$DIMASO
 70
     1
  9
$DIMSHO
 70
     1
  9
$DIMPOST
  1

  9
$DIMAPOST
  1

  9
$DIMALT
 70
     0
  9
$DIMALTD
 70
     2
  9
$DIMALTF
 40
25.4
  9
$DIMLFAC
 40
1.0
  9
$DIMTOFL
 70
     0
  9
$DIMTVP
 40
0.0
  9
$DIMTIX
 70
     0
  9
$DIMSOXD
 70
     0
  9
$DIMSAH
 70
     0
  9
$DIMBLK1
  1

  9
$DIMBLK2
  1

  9
$DIMSTYLE
  2
Standard
  9
$DIMCLRD
 70
     0
  9
$DIMCLRE
 70
     0
  9
$DIMCLRT
 70
     0
  9
$DIMTFAC
 40
1.0
  9
$DIMGAP
 40
0.09
  9
$DIMJUST
 70
     0
  9
$DIMSD1
 70
     0
  9
$DIMSD2
 70
     0
  9
$DIMTOLJ
 70
     1
  9
$DIMTZIN
 70
     0
  9
$DIMALTZ
 70
     0
  9
$DIMALTTZ
 70
     0
  9
$DIMUPT
 70
     0
  9
$DIMDEC
 70
     4
  9
$DIMTDEC
 70
     4
  9
$DIMALTU
 70
     2
  9
$DIMALTTD
 70
     2
  9
$DIMTXSTY
  7
Standard
  9
$DIMAUNIT
 70
     0
  9
$DIMADEC
 70
     0
  9
$DIMALTRND
 40
0.0
  9
$DIMAZIN
 70
     0
  9
$DIMDSEP
 70
    46
  9
$DIMATFIT
 70
     3
  9
$DIMFRAC
 70
     0
  9
$DIMLDRBLK
  1

  9
$DIMLUNIT
 70
     2
  9
$DIMLWD
 70
    -2
  9
$DIMLWE
 70
    -2
  9
$DIMTMOVE
 70
     0
  9
$DIMFXL
 40
1.0
  9
$DIMFXLON
 70
     0
  9
$DIMJOGANG
 40
0.7853981633974483
  9
$DIMTFILL
 70
     0
  9
$DIMTFILLCLR
 70
     0
  9
$DIMARCSYM
 70
     0
  9
$DIMLTYPE
  6

  9
$DIMLTEX1
  6

  9
$DIMLTEX2
  6

  9
$DIMTXTDIRECTION
 70
     0
  9
$LUNITS
 70
     2
  9
$LUPREC
 70
     4
  9
$SKETCHINC
 40
0.1
  9
$FILLETRAD
 40
0.5
  9
$AUNITS
 70
     0
  9
$AUPREC
 70
     0
  9
$MENU
  1
.
  9
$ELEVATION
 40
0.0
  9
$PELEVATION
 40
0.0
  9
$THICKNESS
 40
0.0
  9
$LIMCHECK
 70
     0
  9
$CHAMFERA
 40
0.5
  9
$CHAMFERB
 40
0.5
  9
$CHAMFERC
 40
1.0
  9
$CHAMFERD
 40
0.0
  9
$SKPOLY
 70
     0
  9
$TDCREATE
 40
2458782.826445289
  9
$TDUCREATE
 40
2458782.784778623
  9
$TDUPDATE
 40
2458782.826445289
  9
$TDUUPDATE
 40
2458782.784778623
  9
$TDINDWG
 40
0.0000000116
  9
$TDUSRTIMER
 40
0.0000000116
  9
$USRTIMER
 70
     1
  9
$ANGBASE
 50
0.0
  9
$ANGDIR
 70
     0
  9
$PDMODE
 70
     0
  9
$PDSIZE
 40
0.0
  9
$PLINEWID
 40
0.0
  9
$SPLFRAME
 70
     0
  9
$SPLINETYPE
 70
     6
  9
$SPLINESEGS
 70
     8
  9
$HANDSEED
  5
4C
  9
$SURFTAB1
 70
     6
  9
$SURFTAB2
 70
     6
  9
$SURFTYPE
 70
     6
  9
$SURFU
 70
     6
  9
$SURFV
 70
     6
  9
$UCSBASE
  2

  9
$UCSNAME
  2

  9
$UCSORG
 10
0.0
 20
0.0
 30
0.0
  9
$UCSXDIR
 10
1.0
 20
0.0
 30
0.0
  9
$UCSYDIR
 10
0.0
 20
1.0
 30
0.0
  9
$UCSORTHOREF
  2

  9
$UCSORTHOVIEW
 70
     0
  9
$UCSORGTOP
 10
0.0
 20
0.0
 30
0.0
  9
$UCSORGBOTTOM
 10
0.0
 20
0.0
 30
0.0
  9
$UCSORGLEFT
 10
0.0
 20
0.0
 30
0.0
  9
$UCSORGRIGHT
 10
0.0
 20
0.0
 30
0.0
  9
$UCSORGFRONT
 10
0.0
 20
0.0
 30
0.0
  9
$UCSORGBACK
 10
0.0
 20
0.0
 30
0.0
  9
$PUCSBASE
  2

  9
$PUCSNAME
  2

  9
$PUCSORG
 10
0.0
 20
0.0
 30
0.0
  9
$PUCSXDIR
 10
1.0
 20
0.0
 30
0.0
  9
$PUCSYDIR
 10
0.0
 20
1.0
 30
0.0
  9
$PUCSORTHOREF
  2

  9
$PUCSORTHOVIEW
 70
     0
  9
$PUCSORGTOP
 10
0.0
 20
0.0
 30
0.0
  9
$PUCSORGBOTTOM
 10
0.0
 20
0.0
 30
0.0
  9
$PUCSORGLEFT
 10
0.0
 20
0.0
 30
0.0
  9
$PUCSORGRIGHT
 10
0.0
 20
0.0
 30
0.0
  9
$PUCSORGFRONT
 10
0.0
 20
0.0
 30
0.0
  9
$PUCSORGBACK
 10
0.0
 20
0.0
 30
0.0
  9
$USERI1
 70
     0
  9
$USERI2
 70
     0
  9
$USERI3
 70
     0
  9
$USERI4
 70
     0
  9
$USERI5
 70
     0
  9
$USERR1
 40
0.0
  9
$USERR2
 40
0.0
  9
$USERR3
 40
0.0
  9
$USERR4
 40
0.0
  9
$USERR5
 40
0.0
  9
$WORLDVIEW
 70
     1
  9
$SHADEDGE
 70
     3
  9
$SHADEDIF
 70
    70
  9
$TILEMODE
 70
     1
  9
$MAXACTVP
 70
    64
  9
$PINSBASE
 10
0.0
 20
0.0
 30
0.0
  9
$PLIMCHECK
 70
     0
  9
$PEXTMIN
 10
1.000000000000000E+20
 20
1.000000000000000E+20
 30
1.000000000000000E+20
  9
$PEXTMAX
 10
-1.000000000000000E+20
 20
-1.000000000000000E+20
 30
-1.000000000000000E+20
  9
$PLIMMIN
 10
0.0
 20
0.0
  9
$PLIMMAX
 10
12.0
 20
9.0
  9
$UNITMODE
 70
     0
  9
$VISRETAIN
 70
     1
  9
$PLINEGEN
 70
     0
  9
$PSLTSCALE
 70
     1
  9
$TREEDEPTH
 70
  3020
  9
$CMLSTYLE
  2
Standard
  9
$CMLJUST
 70
     0
  9
$CMLSCALE
 40
1.0
  9
$PROXYGRAPHICS
 70
     1
  9
$MEASUREMENT
 70
     0
  9
$CELWEIGHT
370
    -1
  9
$ENDCAPS
280
     0
  9
$JOINSTYLE
280
     0
  9
$LWDISPLAY
290
     1
  9
$INSUNITS
 70
     1
  9
$HYPERLINKBASE
  1

  9
$STYLESHEET
  1

  9
$XEDIT
290
     1
  9
$CEPSNTYPE
380
     0
  9
$PSTYLEMODE
290
     1
  9
$FINGERPRINTGUID
  2
{73EB1C90-2F3C-4C8D-AA50-17CABAB57DAB}
  9
$VERSIONGUID
  2
{FAEB1C32-E019-11D5-929B-00C0DF256EC4}
  9
$EXTNAMES
290
     1
  9
$PSVPSCALE
 40
0.0
  9
$OLESTARTUP
290
     0
  9
$SORTENTS
280
   127
  9
$INDEXCTL
280
     0
  9
$HIDETEXT
280
     1
  9
$XCLIPFRAME
280
     2
  9
$HALOGAP
280
     0
  9
$OBSCOLOR
 70
   257
  9
$OBSLTYPE
280
     0
  9
$INTERSECTIONDISPLAY
280
     0
  9
$INTERSECTIONCOLOR
 70
   257
  9
$DIMASSOC
280
     2
  9
$PROJECTNAME
  1

  9
$CAMERADISPLAY
290
     0
  9
$LENSLENGTH
 40
50.0
  9
$CAMERAHEIGHT
 40
0.0
  9
$STEPSPERSEC
 40
2.0
  9
$STEPSIZE
 40
6.0
  9
$3DDWFPREC
 40
2.0
  9
$PSOLWIDTH
 40
0.25
  9
$PSOLHEIGHT
 40
4.0
  9
$LOFTANG1
 40
1.570796326794897
  9
$LOFTANG2
 40
1.570796326794897
  9
$LOFTMAG1
 40
0.0
  9
$LOFTMAG2
 40
0.0
  9
$LOFTPARAM
 70
     7
  9
$LOFTNORMALS
280
     1
  9
$LATITUDE
 40
37.795
  9
$LONGITUDE
 40
-122.394
  9
$NORTHDIRECTION
 40
0.0
  9
$TIMEZONE
 70
 -8000
  9
$LIGHTGLYPHDISPLAY
280
     1
  9
$TILEMODELIGHTSYNCH
280
     1
  9
$CMATERIAL
347
3C
  9
$SOLIDHIST
280
     1
  9
$SHOWHIST
280
     1
  9
$DWFFRAME
280
     2
  9
$DGNFRAME
280
     2
  9
$REALWORLDSCALE
290
     1
  9
$INTERFERECOLOR
 62
   256
  9
$CSHADOW
280
     0
  9
$SHADOWPLANELOCATION
 40
0.0
  0
ENDSEC
  0
SECTION
  2
CLASSES
  0
CLASS
  1
ACDBDICTIONARYWDFLT
  2
AcDbDictionaryWithDefault
  3
ObjectDBX Classes
 90
        0
 91
        4
280
     0
281
     0
  0
CLASS
  1
VISUALSTYLE
  2
AcDbVisualStyle
  3
ObjectDBX Classes
 90
     4095
 91
        4
280
     0
281
     0
  0
CLASS
  1
MATERIAL
  2
AcDbMaterial
  3
ObjectDBX Classes
 90
     1153
 91
        4
280
     0
281
     0
  0
CLASS
  1
SUN
  2
AcDbSun
  3
SCENEOE
 90
     1024
 91
        4
280
     0
281
     0
  0
ENDSEC
  0
SECTION
  2
TABLES
  0
TABLE
  2
VPORT
  5
8
330
0
100
AcDbSymbolTable
 70
     1
  0
VPORT
  5
29
330
8
100
AcDbSymbolTableRecord
100
AcDbViewportTableRecord
  2
*Active
 70
     0
 10
0.0
 20
0.0
 11
1.0
 21
1.0
 12
0.0
 22
0.0
 13
0.0
 23
0.0
 14
0.5
 24
0.5
 15
0.5
 25
0.5
 16
0.0
 26
0.0
 36
1.0
 17
104.9999999737534
 27
148.4999999628701
 37
0.0
 40
296.9999999257402
 41
0.7070707070707533
 42
50.0
 43
0.0
 44
0.0
 50
0.0
 51
0.0
 71
     0
 72
   100
 73
     1
 74
     3
 75
     0
 76
     0
 77
     0
 78
     0
281
     0
 65
     1
110
0.0
120
0.0
130
0.0
111
1.0
121
0.0
131
0.0
112
0.0
122
1.0
132
0.0
 79
     0
146
0.0
 60
     3
 61
     5
292
     1
282
     1
141
0.0
142
0.0
 63
   250
361
3F
  0
ENDTAB
  0
TABLE
  2
LTYPE
  5
5
330
0
100
AcDbSymbolTable
 70
     1
  0
LTYPE
  5
14
330
5
100
AcDbSymbolTableRecord
100
AcDbLinetypeTableRecord
  2
ByBlock
 70
     0
  3

 72
    65
 73
     0
 40
0.0
  0
LTYPE
  5
15
330
5
100
AcDbSymbolTableRecord
100
AcDbLinetypeTableRecord
  2
ByLayer
 70
     0
  3

 72
    65
 73
     0
 40
0.0
  0
LTYPE
  5
16
330
5
100
AcDbSymbolTableRecord
100
AcDbLinetypeTableRecord
  2
Continuous
 70
     0
  3
Solid line
 72
    65
 73
     0
 40
0.0
  0
ENDTAB
  0
TABLE
  2
LAYER
  5
2
330
0
100
AcDbSymbolTable
 70
     2
  0
LAYER
  5
10
330
2
100
AcDbSymbolTableRecord
100
AcDbLayerTableRecord
  2
0
 70
     0
 62
     7
  6
Continuous
370
    -3
390
F
347
3E
  0
LAYER
  5
40
330
2
100
AcDbSymbolTableRecord
100
AcDbLayerTableRecord
  2
Layer 1
 70
     0
 62
     7
  6
Continuous
370
    -3
390
F
347
3E
  0
ENDTAB
  0
TABLE
  2
STYLE
  5
3
330
0
100
AcDbSymbolTable
 70
     1
  0
STYLE
  5
11
330
3
100
AcDbSymbolTableRecord
100
AcDbTextStyleTableRecord
  2
Standard
 70
     0
 40
0.0
 41
1.0
 50
0.0
 71
     0
 42
0.2
  3
txt
  4

  0
ENDTAB
  0
TABLE
  2
VIEW
  5
6
330
0
100
AcDbSymbolTable
 70
     0
  0
ENDTAB
  0
TABLE
  2
UCS
  5
7
330
0
100
AcDbSymbolTable
 70
     0
  0
ENDTAB
  0
TABLE
  2
APPID
  5
9
330
0
100
AcDbSymbolTable
 70
     1
  0
APPID
  5
12
330
9
100
AcDbSymbolTableRecord
100
AcDbRegAppTableRecord
  2
ACAD
 70
     0
  0
ENDTAB
  0
TABLE
  2
DIMSTYLE
  5
A
330
0
100
AcDbSymbolTable
 70
     1
100
AcDbDimStyleTable
  0
DIMSTYLE
105
27
330
A
100
AcDbSymbolTableRecord
100
AcDbDimStyleTableRecord
  2
Standard
 70
     0
178
     0
340
11
  0
ENDTAB
  0
TABLE
  2
BLOCK_RECORD
  5
1
330
0
100
AcDbSymbolTable
 70
     1
  0
BLOCK_RECORD
  5
1F
330
1
100
AcDbSymbolTableRecord
100
AcDbBlockTableRecord
  2
*Model_Space
340
22
 70
     0
280
     1
281
     0
  0
BLOCK_RECORD
  5
1B
330
1
100
AcDbSymbolTableRecord
100
AcDbBlockTableRecord
  2
*Paper_Space
340
1E
 70
     0
280
     1
281
     0
  0
BLOCK_RECORD
  5
23
330
1
100
AcDbSymbolTableRecord
100
AcDbBlockTableRecord
  2
*Paper_Space0
340
26
 70
     0
280
     1
281
     0
  0
ENDTAB
  0
ENDSEC
  0
SECTION
  2
BLOCKS
  0
BLOCK
  5
20
330
1F
100
AcDbEntity
  8
0
100
AcDbBlockBegin
  2
*Model_Space
 70
     0
 10
0.0
 20
0.0
 30
0.0
  3
*Model_Space
  1

  0
ENDBLK
  5
21
330
1F
100
AcDbEntity
  8
0
100
AcDbBlockEnd
  0
BLOCK
  5
1C
330
1B
100
AcDbEntity
 67
     1
  8
0
100
AcDbBlockBegin
  2
*Paper_Space
 70
     0
 10
0.0
 20
0.0
 30
0.0
  3
*Paper_Space
  1

  0
ENDBLK
  5
1D
330
1B
100
AcDbEntity
 67
     1
  8
0
100
AcDbBlockEnd
  0
BLOCK
  5
24
330
23
100
AcDbEntity
  8
0
100
AcDbBlockBegin
  2
*Paper_Space0
 70
     0
 10
0.0
 20
0.0
 30
0.0
  3
*Paper_Space0
  1

  0
ENDBLK
  5
25
330
23
100
AcDbEntity
  8
0
100
AcDbBlockEnd
  0
ENDSEC
  0
SECTION
  2
ENTITIES
  0
SPLINE
  5
41
330
1F
100
AcDbEntity
  8
Layer 1
370
     0
100
AcDbSpline
210
0.0
220
0.0
230
1.0
 70
    11
 71
     3
 72
   320
 73
   316
 74
     0
 42
0.0000000001
 43
0.0000000001
 12
1.0
 22
0.0
 32
0.0
 13
1.0
 23
0.0
 33
0.0
 40
0.0
 40
0.0
 40
0.0
 40
0.0
 40
1.0
 40
1.0
 40
1.0
 40
2.0
 40
2.0
 40
2.0
 40
3.0
 40
3.0
 40
3.0
 40
4.0
 40
4.0
 40
4.0
 40
5.0
 40
5.0
 40
5.0
 40
6.0
 40
6.0
 40
6.0
 40
7.0
 40
7.0
 40
7.0
 40
8.0
 40
8.0
 40
8.0
 40
9.0
 40
9.0
 40
9.0
 40
10.0
 40
10.0
 40
10.0
 40
11.0
 40
11.0
 40
11.0
 40
12.0
 40
12.0
 40
12.0
 40
13.0
 40
13.0
 40
13.0
 40
14.0
 40
14.0
 40
14.0
 40
15.0
 40
15.0
 40
15.0
 40
16.0
 40
16.0
 40
16.0
 40
17.0
 40
17.0
 40
17.0
 40
18.0
 40
18.0
 40
18.0
 40
19.0
 40
19.0
 40
19.0
 40
20.0
 40
20.0
 40
20.0
 40
21.0
 40
21.0
 40
21.0
 40
22.0
 40
22.0
 40
22.0
 40
23.0
 40
23.0
 40
23.0
 40
24.0
 40
24.0
 40
24.0
 40
25.0
 40
25.0
 40
25.0
 40
26.0
 40
26.0
 40
26.0
 40
27.0
 40
27.0
 40
27.0
 40
28.0
 40
28.0
 40
28.0
 40
29.0
 40
29.0
 40
29.0
 40
30.0
 40
30.0
 40
30.0
 40
31.0
 40
31.0
 40
31.0
 40
32.0
 40
32.0
 40
32.0
 40
33.0
 40
33.0
 40
33.0
 40
34.0
 40
34.0
 40
34.0
 40
35.0
 40
35.0
 40
35.0
 40
36.0
 40
36.0
 40
36.0
 40
37.0
 40
37.0
 40
37.0
 40
38.0
 40
38.0
 40
38.0
 40
39.0
 40
39.0
 40
39.0
 40
40.0
 40
40.0
 40
40.0
 40
41.0
 40
41.0
 40
41.0
 40
42.0
 40
42.0
 40
42.0
 40
43.0
 40
43.0
 40
43.0
 40
44.0
 40
44.0
 40
44.0
 40
45.0
 40
45.0
 40
45.0
 40
46.0
 40
46.0
 40
46.0
 40
47.0
 40
47.0
 40
47.0
 40
48.0
 40
48.0
 40
48.0
 40
49.0
 40
49.0
 40
49.0
 40
50.0
 40
50.0
 40
50.0
 40
51.0
 40
51.0
 40
51.0
 40
52.0
 40
52.0
 40
52.0
 40
53.0
 40
53.0
 40
53.0
 40
54.0
 40
54.0
 40
54.0
 40
55.0
 40
55.0
 40
55.0
 40
56.0
 40
56.0
 40
56.0
 40
57.0
 40
57.0
 40
57.0
 40
58.0
 40
58.0
 40
58.0
 40
59.0
 40
59.0
 40
59.0
 40
60.0
 40
60.0
 40
60.0
 40
61.0
 40
61.0
 40
61.0
 40
62.0
 40
62.0
 40
62.0
 40
63.0
 40
63.0
 40
63.0
 40
64.0
 40
64.0
 40
64.0
 40
65.0
 40
65.0
 40
65.0
 40
66.0
 40
66.0
 40
66.0
 40
67.0
 40
67.0
 40
67.0
 40
68.0
 40
68.0
 40
68.0
 40
69.0
 40
69.0
 40
69.0
 40
70.0
 40
70.0
 40
70.0
 40
71.0
 40
71.0
 40
71.0
 40
72.0
 40
72.0
 40
72.0
 40
73.0
 40
73.0
 40
73.0
 40
74.0
 40
74.0
 40
74.0
 40
75.0
 40
75.0
 40
75.0
 40
76.0
 40
76.0
 40
76.0
 40
77.0
 40
77.0
 40
77.0
 40
78.0
 40
78.0
 40
78.0
 40
79.0
 40
79.0
 40
79.0
 40
80.0
 40
80.0
 40
80.0
 40
81.0
 40
81.0
 40
81.0
 40
82.0
 40
82.0
 40
82.0
 40
83.0
 40
83.0
 40
83.0
 40
84.0
 40
84.0
 40
84.0
 40
85.0
 40
85.0
 40
85.0
 40
86.0
 40
86.0
 40
86.0
 40
87.0
 40
87.0
 40
87.0
 40
88.0
 40
88.0
 40
88.0
 40
89.0
 40
89.0
 40
89.0
 40
90.0
 40
90.0
 40
90.0
 40
91.0
 40
91.0
 40
91.0
 40
92.0
 40
92.0
 40
92.0
 40
93.0
 40
93.0
 40
93.0
 40
94.0
 40
94.0
 40
94.0
 40
95.0
 40
95.0
 40
95.0
 40
96.0
 40
96.0
 40
96.0
 40
97.0
 40
97.0
 40
97.0
 40
98.0
 40
98.0
 40
98.0
 40
99.0
 40
99.0
 40
99.0
 40
100.0
 40
100.0
 40
100.0
 40
101.0
 40
101.0
 40
101.0
 40
102.0
 40
102.0
 40
102.0
 40
103.0
 40
103.0
 40
103.0
 40
104.0
 40
104.0
 40
104.0
 40
105.0
 40
105.0
 40
105.0
 40
105.0
 10
180.8453667407915
 20
159.1684498706897
 30
0.0
 10
180.9302452808094
 20
163.6922693479116
 30
0.0
 10
180.7159603416268
 20
168.2347138726006
 30
0.0
 10
180.0655478458584
 20
172.722898143397
 30
0.0
 10
179.4765226452679
 20
176.9079355433381
 30
0.0
 10
178.5011515178533
 20
181.0511796286739
 30
0.0
 10
177.0337346277579
 20
185.0123934813077
 30
0.0
 10
176.6026455233192
 20
186.3564974848779
 30
0.0
 10
176.2039403164419
 20
187.7139727653002
 30
0.0
 10
175.6667853347511
 20
189.0142379288207
 30
0.0
 10
174.3824752696968
 20
192.1231136265569
 30
0.0
 10
173.0550153836897
 20
195.2143116780844
 30
0.0
 10
171.71164346291
 20
198.298468815714
 30
0.0
 10
170.6925411546796
 20
201.527922855434
 30
0.0
 10
169.2234017168416
 20
205.0027753529377
 30
0.0
 10
167.7934071764547
 20
208.3762559157879
 30
0.0
 10
166.7336958051918
 20
210.8760171998852
 30
0.0
 10
165.7328955667268
 20
213.2372856454754
 30
0.0
 10
164.9450022292502
 20
215.4192368710584
 30
0.0
 10
164.3710493214075
 20
217.0093206922755
 30
0.0
 10
164.1860476938496
 20
218.9618285585408
 30
0.0
 10
163.9900217607389
 20
221.0288858496907
 30
0.0
 10
163.7828853946882
 20
223.2133563013473
 30
0.0
 10
163.5629806434954
 20
225.4566302265677
 30
0.0
 10
162.8693321993871
 20
227.4550870538676
 30
0.0
 10
162.8640999606189
 20
227.4734752510201
 30
0.0
 10
162.8563700276239
 20
227.4935429322217
 30
0.0
 10
162.8502980468311
 20
227.5124694255438
 30
0.0
 10
162.7960593247852
 20
227.6662929389602
 30
0.0
 10
162.7377941473909
 20
227.8179417358515
 30
0.0
 10
162.6775911037862
 20
227.9686215996376
 30
0.0
 10
162.446317537492
 20
228.5765517617035
 30
0.0
 10
162.2521218113578
 20
229.2358569101932
 30
0.0
 10
162.2987813233362
 20
229.8473828906718
 30
0.0
 10
162.7187169311414
 20
235.3523440302461
 30
0.0
 10
161.3445114057687
 20
240.5962961231192
 30
0.0
 10
160.1225360371506
 20
245.8723737313922
 30
0.0
 10
159.1577370465064
 20
250.038010937382
 30
0.0
 10
158.7084965952298
 20
254.2548939387149
 30
0.0
 10
159.2350363764567
 20
258.5284056970867
 30
0.0
 10
159.3204962763377
 20
259.2221187367353
 30
0.0
 10
159.1567250497076
 20
259.7435339384278
 30
0.0
 10
158.6186226667584
 20
260.1844630968462
 30
0.0
 10
157.8144297212671
 20
260.8434237357874
 30
0.0
 10
157.0723776855911
 20
261.5872844465932
 30
0.0
 10
156.2218482058233
 20
262.1766756885791
 30
0.0
 10
155.8181691423391
 20
262.4564174419814
 30
0.0
 10
155.231770827056
 20
262.5104408455595
 30
0.0
 10
154.7163199469223
 20
262.5851563538958
 30
0.0
 10
149.5485475279669
 20
263.3341201123891
 30
0.0
 10
144.3802798765354
 20
264.0803923900346
 30
0.0
 10
139.2077704512878
 20
264.7956588083128
 30
0.0
 10
137.2127587194731
 20
265.071546361141
 30
0.0
 10
135.2062705133233
 20
265.2641917943068
 30
0.0
 10
133.205574373958
 20
265.4995133477962
 30
0.0
 10
132.8651128126282
 20
265.5395625828122
 30
0.0
 10
132.5274934550737
 20
265.6036628906846
 30
0.0
 10
132.1885391230187
 20
265.6566527656171
 30
0.0
 10
132.1885391230187
 20
265.6566527656171
 30
0.0
 10
125.754887899855
 20
265.6566527656171
 30
0.0
 10
125.754887899855
 20
265.6566527656171
 30
0.0
 10
124.0666619210018
 20
265.4797471124495
 30
0.0
 10
122.3631052672394
 20
265.3930598973019
 30
0.0
 10
120.6929875715306
 20
265.1093993477851
 30
0.0
 10
115.2073189666737
 20
264.1777163374929
 30
0.0
 10
109.7332990909263
 20
263.1773897996571
 30
0.0
 10
104.2562862884765
 20
262.1949777583445
 30
0.0
 10
103.6398295150846
 20
262.0844117251148
 30
0.0
 10
103.0330190090514
 20
261.9200376067748
 30
0.0
 10
102.1665559626642
 20
261.7224183170021
 30
0.0
 10
102.3705917427782
 20
260.9096556964914
 30
0.0
 10
102.4977372980307
 20
260.0932326620275
 30
0.0
 10
102.7782326660704
 20
259.3334168527556
 30
0.0
 10
105.7952535054308
 20
251.1609828744928
 30
0.0
 10
108.8361962265673
 20
242.9969247846284
 30
0.0
 10
111.8888738042004
 20
234.7820730682034
 30
0.0
 10
111.9099965458943
 20
234.7766685746609
 30
0.0
 10
111.9285354659743
 20
234.7679912404074
 30
0.0
 10
111.9491199114987
 20
234.7618761959211
 30
0.0
 10
112.6696616322387
 20
232.7570459419735
 30
0.0
 10
113.2915874947134
 20
230.7088936122989
 30
0.0
 10
113.8079642442588
 20
228.6390371810672
 30
0.0
 10
113.7909756171472
 20
228.6453244803278
 30
0.0
 10
113.7739008626484
 20
228.651353397427
 30
0.0
 10
113.7569122355367
 20
228.6576406966876
 30
0.0
 10
110.6127243090767
 20
229.8227073942587
 30
0.0
 10
107.813605759158
 20
231.6828221059791
 30
0.0
 10
105.3979694004412
 20
234.0587322073816
 30
0.0
 10
105.2490120843977
 20
234.2052348928918
 30
0.0
 10
105.0388612597977
 20
234.2875511431425
 30
0.0
 10
104.87614509366
 20
234.4225773543176
 30
0.0
 10
104.6399837981462
 20
234.6185602237347
 30
0.0
 10
104.4211125755989
 20
234.8353859208376
 30
0.0
 10
104.1948559296051
 20
235.0433189652192
 30
0.0
 10
104.4832534854141
 20
235.1331498299971
 30
0.0
 10
104.7787134869678
 20
235.3180653301679
 30
0.0
 10
105.058864345459
 20
235.2972440343289
 30
0.0
 10
106.7470903243118
 20
235.171821026819
 30
0.0
 10
108.4312683159697
 20
234.9931712940621
 30
0.0
 10
110.1180731929352
 20
234.8472284365681
 30
0.0
 10
110.4912846932216
 20
234.8149521982407
 30
0.0
 10
110.869663836736
 20
234.8424914302759
 30
0.0
 10
111.3332875616635
 20
234.8424914302759
 30
0.0
 10
111.2547609164466
 20
235.151107390214
 30
0.0
 10
111.2171232482702
 20
235.3884314054541
 30
0.0
 10
111.1349146572534
 20
235.6091543668247
 30
0.0
 10
108.2048178833549
 20
243.4758145889249
 30
0.0
 10
105.2640413134521
 20
251.3384914193703
 30
0.0
 10
102.347315816406
 20
259.2100824343837
 30
0.0
 10
102.0673372126891
 20
259.9657425972264
 30
0.0
 10
101.9333660620064
 20
260.7755122910344
 30
0.0
 10
101.717186320307
 20
261.6162447805161
 30
0.0
 10
100.9227688332551
 20
261.4384563216304
 30
0.0
 10
100.0444632711375
 20
261.2149772838716
 30
0.0
 10
99.15427212959571
 20
261.059689604874
 30
0.0
 10
98.8984953216627
 20
261.0150540864932
 30
0.0
 10
98.46327210264172
 20
261.0756447033401
 30
0.0
 10
98.35724928908316
 20
261.2437222993267
 30
0.0
 10
97.5743944037537
 20
262.4847318205008
 30
0.0
 10
96.31708527456499
 20
262.8940952915356
 30
0.0
 10
95.02013601544913
 20
263.1761409525437
 30
0.0
 10
90.98465882326138
 20
264.0537359637175
 30
0.0
 10
86.87302348900283
 20
264.1195372874857
 30
0.0
 10
82.78457795372937
 20
263.9450216693111
 30
0.0
 10
78.0991189027089
 20
263.7450123445456
 30
0.0
 10
73.42694500115341
 20
263.2403704514968
 30
0.0
 10
68.74773018569995
 20
262.8849873203465
 30
0.0
 10
66.23530817569437
 20
262.694193626004
 30
0.0
 10
63.72021621668773
 20
262.5388844151595
 30
0.0
 10
61.14726818537567
 20
262.3635290549603
 30
0.0
 10
61.02613001537557
 20
261.0306216117172
 30
0.0
 10
61.01579472891982
 20
259.6101010839147
 30
0.0
 10
60.74869216957905
 20
258.2396420998824
 30
0.0
 10
60.11759374037484
 20
255.0015968532961
 30
0.0
 10
59.31415440952102
 20
251.7972058832313
 30
0.0
 10
58.67784527339537
 20
248.5600649742098
 30
0.0
 10
58.24148086649491
 20
246.3401315709019
 30
0.0
 10
57.94955208781356
 20
244.0905703464209
 30
0.0
 10
57.65004409906465
 20
241.8466719976438
 30
0.0
 10
57.61649748177702
 20
241.5952661546077
 30
0.0
 10
57.90207436565746
 20
241.1170223057147
 30
0.0
 10
58.13054879186987
 20
241.0489386061874
 30
0.0
 10
58.85731321633011
 20
240.8323712912459
 30
0.0
 10
58.87651962366037
 20
240.402595629461
 30
0.0
 10
58.70508305957563
 20
239.8166710148071
 30
0.0
 10
58.36993986440117
 20
238.6712413615019
 30
0.0
 10
58.05090249062025
 20
237.521117765598
 30
0.0
 10
57.7161253368411
 20
236.3755804530589
 30
0.0
 10
57.70548860453039
 20
236.3391701001491
 30
0.0
 10
57.70113917148026
 20
236.3069799892089
 30
0.0
 10
57.69263409200105
 20
236.2720338018804
 30
0.0
 10
57.56701729787013
 20
236.1701235710573
 30
0.0
 10
57.4420249272959
 20
236.0669644931208
 30
0.0
 10
57.32349211075653
 20
235.9583793897951
 30
0.0
 10
56.46635235402637
 20
235.1732421287067
 30
0.0
 10
55.60680103045654
 20
234.2563299653075
 30
0.0
 10
54.61823088096409
 20
233.0729396661241
 30
0.0
 10
53.9715864583827
 20
232.2988267105885
 30
0.0
 10
53.34078947503345
 20
231.4942246600084
 30
0.0
 10
52.73066306459571
 20
230.7159775898905
 30
0.0
 10
52.50345901734348
 20
230.4260728048067
 30
0.0
 10
52.27625497009125
 20
230.1363402744972
 30
0.0
 10
52.04784513941919
 20
229.847469018059
 30
0.0
 10
51.29285246382669
 20
228.8924885495477
 30
0.0
 10
50.51891176306531
 20
227.5273694635175
 30
0.0
 10
49.89689977320345
 20
226.4306233157882
 30
0.0
 10
49.89689977320345
 20
226.4306233157882
 30
0.0
 10
49.67658591692173
 20
226.0425333093748
 30
0.0
 10
49.67658591692173
 20
226.0425333093748
 30
0.0
 10
48.82648707408955
 20
224.5511945375037
 30
0.0
 10
48.15053780803674
 20
223.2559032305901
 30
0.0
 10
47.6049208105603
 20
221.898104972466
 30
0.0
 10
45.73434162130356
 20
220.8392979387681
 30
0.0
 10
43.9399421059644
 20
219.9255940205394
 30
0.0
 10
42.31491209741883
 20
218.7751905106274
 30
0.0
 10
39.64364965369646
 20
216.884156066927
 30
0.0
 10
37.10721963452804
 20
214.8006699766818
 30
0.0
 10
34.54480067629278
 20
212.7596446882923
 30
0.0
 10
34.06147531155901
 20
212.3746552678156
 30
0.0
 10
33.7118627153465
 20
212.2522467188554
 30
0.0
 10
33.142259240554
 20
212.5739755734841
 30
0.0
 10
31.02755197247374
 20
213.7684763056074
 30
0.0
 10
29.01137443527162
 20
213.4567597597326
 30
0.0
 10
27.17089676781725
 20
211.9771127806646
 30
0.0
 10
25.77156357724911
 20
210.8521168499562
 30
0.0
 10
24.40973886377663
 20
209.6759827831387
 30
0.0
 10
23.08494892677059
 20
208.4638690003472
 30
0.0
 10
21.04183504924318
 20
206.5945386582038
 30
0.0
 10
20.56514149331851
 20
204.0437684290781
 30
0.0
 10
20.16968759530539
 20
201.4716601397905
 30
0.0
 10
20.11325262488765
 20
201.1046282795307
 30
0.0
 10
20.0422836578915
 20
200.7398141994895
 30
0.0
 10
19.97803262709159
 20
200.3739665908028
 30
0.0
 10
19.97803262709159
 20
200.3739665908028
 30
0.0
 10
19.97803262709159
 20
194.8864462471226
 30
0.0
 10
19.97803262709159
 20
194.8864462471226
 30
0.0
 10
20.10175461870562
 20
193.5128651453067
 30
0.0
 10
20.25441541239576
 20
192.1411142504673
 30
0.0
 10
20.34209309249537
 20
190.7652292410457
 30
0.0
 10
20.46036752687335
 20
188.9096362171498
 30
0.0
 10
20.57922332111447
 20
187.0513301805592
 30
0.0
 10
20.59758998642021
 20
185.1932179305897
 30
0.0
 10
20.60721472193212
 20
184.2201507107809
 30
0.0
 10
21.03472953980485
 20
183.6499012805849
 30
0.0
 10
21.86721533196869
 20
183.3154686363543
 30
0.0
 10
22.68262636963376
 20
182.9878831194006
 30
0.0
 10
23.54504142882571
 20
182.7634566803834
 30
0.0
 10
24.32899443834109
 20
182.3765939892366
 30
0.0
 10
24.80097251982032
 20
182.1437055344337
 30
0.0
 10
25.29288909142043
 20
181.763474652096
 30
0.0
 10
25.5534890330328
 20
181.3190788663456
 30
0.0
 10
28.08524664144933
 20
177.0016421405369
 30
0.0
 10
30.48019089540789
 20
172.6033963937524
 30
0.0
 10
33.57961411240647
 20
168.6413643309408
 30
0.0
 10
35.28429042220166
 20
166.4622553091332
 30
0.0
 10
37.26931137710905
 20
164.5853888206158
 30
0.0
 10
39.44372645631805
 20
162.9024381442245
 30
0.0
 10
42.01335858322555
 20
160.9135845205898
 30
0.0
 10
44.1810772580851
 20
158.557419122687
 30
0.0
 10
45.96546446467026
 20
155.8555599246863
 30
0.0
 10
48.48113778354004
 20
152.0464039740327
 30
0.0
 10
50.9955837871432
 20
148.2352024979347
 30
0.0
 10
53.43234288755397
 20
144.375489771035
 30
0.0
 10
55.86406353581756
 20
140.5237653592918
 30
0.0
 10
56.94343348319313
 20
136.1857011242652
 30
0.0
 10
57.6162821633092
 20
131.7469539736822
 30
0.0
 10
59.22249333776659
 20
121.1508307260057
 30
0.0
 10
58.98297307415459
 20
110.5021267084856
 30
0.0
 10
58.34194846358351
 20
99.85434856037713
 30
0.0
 10
58.1776174089371
 20
97.12475634372012
 30
0.0
 10
57.60555930361136
 20
94.41906447699202
 30
0.0
 10
57.45455646212351
 20
91.68947226033501
 30
0.0
 10
57.27198793325204
 20
88.38965214532881
 30
0.0
 10
57.23344592751081
 20
85.07340323122732
 30
0.0
 10
57.31856131784326
 20
81.76906142839671
 30
0.0
 10
57.48498096162761
 20
75.3085815241416
 30
0.0
 10
57.7696104442496
 20
68.8509868873554
 30
0.0
 10
58.0257748254247
 20
62.39302620917388
 30
0.0
 10
58.26307730881808
 20
56.41046717611006
 30
0.0
 10
58.55078584553
 20
50.43124557929757
 30
0.0
 10
60.26840279524166
 20
44.63538918968751
 30
0.0
 10
61.06839703061024
 20
41.93596309037321
 30
0.0
 10
62.16932035661539
 20
39.36962533602348
 30
0.0
 10
63.78037619659891
 20
37.04810467959431
 30
0.0
 10
63.96434429551125
 20
36.78298305015755
 30
0.0
 10
64.33585477990188
 20
36.53706782805106
 30
0.0
 10
64.65114561234259
 20
36.49051597530663
 30
0.0
 10
70.73298799092196
 20
35.59283175108443
 30
0.0
 10
76.82247417510922
 20
34.84483692569634
 30
0.0
 10
82.9991212750733
 20
35.16637199370407
 30
0.0
 10
87.57791155713173
 20
35.40468647389623
 30
0.0
 10
91.32264422221117
 20
37.01171585853136
 30
0.0
 10
93.65512458865278
 20
41.1734773321003
 30
0.0
 10
94.39295638235939
 20
42.48995597624818
 30
0.0
 10
95.18612502229782
 20
43.78311563033026
 30
0.0
 10
95.81877374447038
 20
45.14954815901427
 30
0.0
 10
98.33838739130142
 20
50.59152864674882
 30
0.0
 10
100.0031436571613
 20
56.32763416153659
 30
0.0
 10
101.5245408871412
 20
62.1083967265519
 30
0.0
 10
103.5566950546561
 20
69.8298461739488
 30
0.0
 10
105.574056843431
 20
77.55521441746016
 30
0.0
 10
107.6178812719022
 20
85.2735848107671
 30
0.0
 10
107.7428305787829
 20
85.7454767648592
 30
0.0
 10
107.6331042875777
 20
86.586295381728
 30
0.0
 10
108.6235907714338
 20
86.21685195462851
 30
0.0
 10
109.0032833576019
 20
83.69342717091692
 30
0.0
 10
109.344606192803
 20
81.1094117703585
 30
0.0
 10
109.7868918575687
 20
78.54279410200058
 30
0.0
 10
111.3201961988195
 20
69.64538284256045
 30
0.0
 10
113.9338824842447
 20
61.05650141567121
 30
0.0
 10
117.2846254168922
 20
52.68507010944158
 30
0.0
 10
120.4774322533879
 20
44.70820989550698
 30
0.0
 10
124.1705746135757
 20
36.96021168102688
 30
0.0
 10
128.0471037128127
 20
29.2976087708874
 30
0.0
 10
128.3302259661599
 20
28.73797454115535
 30
0.0
 10
128.7247970584549
 20
28.23572268309949
 30
0.0
 10
129.0272549102131
 20
27.684658128387
 30
0.0
 10
130.4390765719153
 20
25.11239911617199
 30
0.0
 10
132.7202680793202
 20
24.03234014969938
 30
0.0
 10
135.5362460652699
 20
23.81753844619405
 30
0.0
 10
136.6309897512483
 20
23.73403794437031
 30
0.0
 10
137.7198767749019
 20
23.57377640876584
 30
0.0
 10
138.8114337475565
 20
23.44846106048988
 30
0.0
 10
138.8114337475565
 20
23.44846106048988
 30
0.0
 10
147.1373251978405
 20
23.44846106048988
 30
0.0
 10
147.1373251978405
 20
23.44846106048988
 30
0.0
 10
147.6341294986603
 20
23.50125714880134
 30
0.0
 10
148.1297064842135
 20
23.57862107429198
 30
0.0
 10
148.6278888232274
 20
23.60299512485012
 30
0.0
 10
152.6547102130085
 20
23.80014071399354
 30
0.0
 10
156.6818115167977
 20
23.99233397837692
 30
0.0
 10
160.709300393829
 20
24.17572071742612
 30
0.0
 10
163.2450198620536
 20
24.29119601172234
 30
0.0
 10
165.0667863546537
 20
25.5423039690376
 30
0.0
 10
166.1828465689472
 20
27.75829704438421
 30
0.0
 10
168.0623830064656
 20
31.49017519693432
 30
0.0
 10
170.0043402678074
 20
35.20013392945952
 30
0.0
 10
171.6711851228051
 20
39.02767807726566
 30
0.0
 10
178.7063715495403
 20
55.18241982669919
 30
0.0
 10
180.3200542748313
 20
71.85035161235426
 30
0.0
 10
179.6577131359452
 20
88.77670862309662
 30
0.0
 10
179.3325176539844
 20
97.08795841756829
 30
0.0
 10
180.8441394255249
 20
106.0144161383185
 30
0.0
 10
179.7938159394594
 20
114.4201046127795
 30
0.0
 10
178.6862608046451
 20
123.2836247453835
 30
0.0
 10
178.7123574029459
 20
135.7746797010281
 30
0.0
 10
179.6251785154564
 20
144.5525676789769
 30
0.0
 10
179.6327146618304
 20
144.625022343401
 30
0.0
 10
179.6348893783554
 20
144.6806821673346
 30
0.0
 10
179.6342649547987
 20
144.7276000614744
 30
0.0
 10
179.6793311101152
 20
145.0376155914533
 30
0.0
 10
179.7260121539403
 20
145.347351207424
 30
0.0
 10
179.768774401651
 20
145.6577758424918
 30
0.0
 10
180.3888269934556
 20
150.1293590594186
 30
0.0
 10
180.762146152976
 20
154.6429724412655
 30
0.0
 10
180.8453667407915
 20
159.1684498706897
 30
0.0
  0
SPLINE
  5
42
330
1F
100
AcDbEntity
  8
Layer 1
370
     0
100
AcDbSpline
210
0.0
220
0.0
230
1.0
 70
    11
 71
     3
 72
    35
 73
    31
 74
     0
 42
0.0000000001
 43
0.0000000001
 12
1.0
 22
0.0
 32
0.0
 13
1.0
 23
0.0
 33
0.0
 40
0.0
 40
0.0
 40
0.0
 40
0.0
 40
1.0
 40
1.0
 40
1.0
 40
2.0
 40
2.0
 40
2.0
 40
3.0
 40
3.0
 40
3.0
 40
4.0
 40
4.0
 40
4.0
 40
5.0
 40
5.0
 40
5.0
 40
6.0
 40
6.0
 40
6.0
 40
7.0
 40
7.0
 40
7.0
 40
8.0
 40
8.0
 40
8.0
 40
9.0
 40
9.0
 40
9.0
 40
10.0
 40
10.0
 40
10.0
 40
10.0
 10
155.3650314267949
 20
219.9482885870485
 30
0.0
 10
157.9617936806487
 20
221.8063793051712
 30
0.0
 10
160.3899185104996
 20
223.8531105329582
 30
0.0
 10
162.4925894762283
 20
226.2716752228375
 30
0.0
 10
162.9370929212126
 20
224.5920404508507
 30
0.0
 10
163.1174006061719
 20
222.7573117864873
 30
0.0
 10
163.2875667912965
 20
220.9622232520511
 30
0.0
 10
163.4877268389895
 20
218.8495184457217
 30
0.0
 10
163.6772070906782
 20
216.8537746311164
 30
0.0
 10
164.281476838791
 20
215.1798027348335
 30
0.0
 10
165.0755713481411
 20
212.9795925031787
 30
0.0
 10
166.08016119164
 20
210.6098835736496
 30
0.0
 10
167.1436621679366
 20
208.1009927865164
 30
0.0
 10
168.0612418185861
 20
205.9364823568275
 30
0.0
 10
168.9936353798222
 20
203.7305231220817
 30
0.0
 10
169.8130944046824
 20
201.5784150361397
 30
0.0
 10
169.7458935108733
 20
201.6181197616072
 30
0.0
 10
169.6797261457097
 20
201.6578460189215
 30
0.0
 10
169.618532637153
 20
201.6986058048813
 30
0.0
 10
169.1262284923107
 20
202.0265573632304
 30
0.0
 10
168.5077907890148
 20
202.2320573089255
 30
0.0
 10
168.131543298332
 20
202.6567083911761
 30
0.0
 10
165.0387518901425
 20
206.1471714775973
 30
0.0
 10
161.0163014652584
 20
208.3471879226311
 30
0.0
 10
157.0814641249335
 20
210.6563492990069
 30
0.0
 10
154.3762459588346
 20
212.2439354259972
 30
0.0
 10
151.59704436719
 20
213.7054310582273
 30
0.0
 10
148.7735948304067
 20
215.2659947175051
 30
0.0
 10
151.0092034181725
 20
216.8532363349469
 30
0.0
 10
153.1922527679414
 20
218.3935815900956
 30
0.0
 10
155.3650314267949
 20
219.9482885870485
 30
0.0
  0
SPLINE
  5
43
330
1F
100
AcDbEntity
  8
Layer 1
370
     0
100
AcDbSpline
210
0.0
220
0.0
230
1.0
 70
    11
 71
     3
 72
    32
 73
    28
 74
     0
 42
0.0000000001
 43
0.0000000001
 12
1.0
 22
0.0
 32
0.0
 13
1.0
 23
0.0
 33
0.0
 40
0.0
 40
0.0
 40
0.0
 40
0.0
 40
1.0
 40
1.0
 40
1.0
 40
2.0
 40
2.0
 40
2.0
 40
3.0
 40
3.0
 40
3.0
 40
4.0
 40
4.0
 40
4.0
 40
5.0
 40
5.0
 40
5.0
 40
6.0
 40
6.0
 40
6.0
 40
7.0
 40
7.0
 40
7.0
 40
8.0
 40
8.0
 40
8.0
 40
9.0
 40
9.0
 40
9.0
 40
9.0
 10
112.8420025338883
 20
234.3538476993868
 30
0.0
 10
119.1185143392311
 20
235.9958017395037
 30
0.0
 10
125.2491048189267
 20
237.642169808211
 30
0.0
 10
131.4045430498097
 20
239.154437535155
 30
0.0
 10
138.1562411818024
 20
240.8131864157624
 30
0.0
 10
144.9992989396945
 20
241.9751955910904
 30
0.0
 10
151.9392930718028
 20
242.466466207287
 30
0.0
 10
151.9895699340406
 20
242.3851619538351
 30
0.0
 10
152.0398467962785
 20
242.30387923223
 30
0.0
 10
152.0901236585164
 20
242.2225965106249
 30
0.0
 10
151.6024273288857
 20
241.7300770473149
 30
0.0
 10
151.1605077055153
 20
241.1793354703041
 30
0.0
 10
150.6198860964925
 20
240.7541030281904
 30
0.0
 10
145.4940361832231
 20
236.7222647181089
 30
0.0
 10
140.3024495417259
 20
232.7720967028747
 30
0.0
 10
135.239903257998
 20
228.6627868080687
 30
0.0
 10
133.4407667363666
 20
227.2024108318713
 30
0.0
 10
131.9568779834824
 20
225.3565071390276
 30
0.0
 10
130.2930045233407
 20
223.7233811560917
 30
0.0
 10
130.0597500271425
 20
223.4944114974033
 30
0.0
 10
129.5599527996199
 20
223.2959739974529
 30
0.0
 10
129.2840221830981
 20
223.3872474959653
 30
0.0
 10
124.3807469700227
 20
225.0088324090256
 30
0.0
 10
119.4567365884955
 20
226.5788485490411
 30
0.0
 10
114.6068172917479
 20
228.3481419310315
 30
0.0
 10
114.1168170545114
 20
230.375580624101
 30
0.0
 10
113.5260693061782
 20
232.3840282283081
 30
0.0
 10
112.8420025338883
 20
234.3538476993868
 30
0.0
  0
SPLINE
  5
44
330
1F
100
AcDbEntity
  8
Layer 1
370
     0
100
AcDbSpline
210
0.0
220
0.0
230
1.0
 70
    11
 71
     3
 72
    50
 73
    46
 74
     0
 42
0.0000000001
 43
0.0000000001
 12
1.0
 22
0.0
 32
0.0
 13
1.0
 23
0.0
 33
0.0
 40
0.0
 40
0.0
 40
0.0
 40
0.0
 40
1.0
 40
1.0
 40
1.0
 40
2.0
 40
2.0
 40
2.0
 40
3.0
 40
3.0
 40
3.0
 40
4.0
 40
4.0
 40
4.0
 40
5.0
 40
5.0
 40
5.0
 40
6.0
 40
6.0
 40
6.0
 40
7.0
 40
7.0
 40
7.0
 40
8.0
 40
8.0
 40
8.0
 40
9.0
 40
9.0
 40
9.0
 40
10.0
 40
10.0
 40
10.0
 40
11.0
 40
11.0
 40
11.0
 40
12.0
 40
12.0
 40
12.0
 40
13.0
 40
13.0
 40
13.0
 40
14.0
 40
14.0
 40
14.0
 40
15.0
 40
15.0
 40
15.0
 40
15.0
 10
115.8459750740987
 20
207.7633303652684
 30
0.0
 10
115.3480080535526
 20
211.0222184395405
 30
0.0
 10
114.972234263499
 20
214.2998176886668
 30
0.0
 10
114.5603300345438
 20
217.5716464028554
 30
0.0
 10
114.5396379297855
 20
217.7358913301146
 30
0.0
 10
114.6037382376579
 20
217.9108160533782
 30
0.0
 10
114.6283706703775
 20
218.0807669200349
 30
0.0
 10
114.7216896943342
 20
218.0932123274754
 30
0.0
 10
114.8150087182909
 20
218.1056792667626
 30
0.0
 10
114.9083277422476
 20
218.1181246742031
 30
0.0
 10
114.9906439924983
 20
217.6031905583922
 30
0.0
 10
115.0871066660853
 20
217.0900435858642
 30
0.0
 10
115.1526280758454
 20
216.5729778172218
 30
0.0
 10
115.3422590504616
 20
215.0769666345988
 30
0.0
 10
115.5533572763203
 20
213.5825488086378
 30
0.0
 10
115.692280751763
 20
212.0815853012548
 30
0.0
 10
115.8413026633468
 20
210.4712615440619
 30
0.0
 10
116.7710908711222
 20
209.6426084206254
 30
0.0
 10
118.4614915665004
 20
209.3123960183642
 30
0.0
 10
118.1015867475257
 20
208.6679478441546
 30
0.0
 10
117.8124571089261
 20
208.0938442133845
 30
0.0
 10
117.4680336877882
 20
207.555074343185
 30
0.0
 10
117.2667109203689
 20
207.2401495521396
 30
0.0
 10
116.9645545144657
 20
206.9916289765724
 30
0.0
 10
116.729469811291
 20
206.6959751883976
 30
0.0
 10
116.0177346158852
 20
205.8008532539426
 30
0.0
 10
115.6757442934338
 20
204.9061404245764
 30
0.0
 10
116.0903830669304
 20
203.6821410623607
 30
0.0
 10
116.9754711607846
 20
201.069402178194
 30
0.0
 10
117.689230349788
 20
198.3985919032541
 30
0.0
 10
118.4707933243105
 20
195.7508637680653
 30
0.0
 10
118.5131464669323
 20
195.6073970729515
 30
0.0
 10
118.5334509984485
 20
195.4574277601092
 30
0.0
 10
118.5640046890333
 20
195.3104729058165
 30
0.0
 10
118.5038016454286
 20
195.2921493042043
 30
0.0
 10
118.4435986018238
 20
195.2738041707454
 30
0.0
 10
118.3833955582191
 20
195.2554805691332
 30
0.0
 10
117.3996054787124
 20
198.3635165248449
 30
0.0
 10
116.4054585809033
 20
201.4683872990795
 30
0.0
 10
115.4492723289722
 20
204.5849068024237
 30
0.0
 10
115.3609702253159
 20
204.8727660620631
 30
0.0
 10
115.4111394283198
 20
205.3032738066386
 30
0.0
 10
115.5747599320224
 20
205.5493397516726
 30
0.0
 10
116.050958255471
 20
206.2655105075157
 30
0.0
 10
115.970558339584
 20
206.9480700505308
 30
0.0
 10
115.8459750740987
 20
207.7633303652684
 30
0.0
  0
SPLINE
  5
45
330
1F
100
AcDbEntity
  8
Layer 1
370
     0
100
AcDbSpline
210
0.0
220
0.0
230
1.0
 70
    11
 71
     3
 72
    14
 73
    10
 74
     0
 42
0.0000000001
 43
0.0000000001
 12
1.0
 22
0.0
 32
0.0
 13
1.0
 23
0.0
 33
0.0
 40
0.0
 40
0.0
 40
0.0
 40
0.0
 40
1.0
 40
1.0
 40
1.0
 40
2.0
 40
2.0
 40
2.0
 40
3.0
 40
3.0
 40
3.0
 40
3.0
 10
114.7903332218778
 20
220.6300083880391
 30
0.0
 10
114.7903332218778
 20
220.6300083880391
 30
0.0
 10
114.4265311386354
 20
220.5648960833679
 30
0.0
 10
114.4265311386354
 20
220.5648960833679
 30
0.0
 10
114.1714002861059
 20
222.0497753012041
 30
0.0
 10
113.9162694335763
 20
223.5346329871936
 30
0.0
 10
113.6611601128936
 20
225.0194906731831
 30
0.0
 10
114.6303946639751
 20
223.6730612301603
 30
0.0
 10
114.5500808754752
 20
222.1197753350951
 30
0.0
 10
114.7903332218778
 20
220.6300083880391
 30
0.0
  0
SPLINE
  5
46
330
1F
100
AcDbEntity
  8
Layer 1
370
     0
100
AcDbSpline
210
0.0
220
0.0
230
1.0
 70
    11
 71
     3
 72
    53
 73
    49
 74
     0
 42
0.0000000001
 43
0.0000000001
 12
1.0
 22
0.0
 32
0.0
 13
1.0
 23
0.0
 33
0.0
 40
0.0
 40
0.0
 40
0.0
 40
0.0
 40
1.0
 40
1.0
 40
1.0
 40
2.0
 40
2.0
 40
2.0
 40
3.0
 40
3.0
 40
3.0
 40
4.0
 40
4.0
 40
4.0
 40
5.0
 40
5.0
 40
5.0
 40
6.0
 40
6.0
 40
6.0
 40
7.0
 40
7.0
 40
7.0
 40
8.0
 40
8.0
 40
8.0
 40
9.0
 40
9.0
 40
9.0
 40
10.0
 40
10.0
 40
10.0
 40
11.0
 40
11.0
 40
11.0
 40
12.0
 40
12.0
 40
12.0
 40
13.0
 40
13.0
 40
13.0
 40
14.0
 40
14.0
 40
14.0
 40
15.0
 40
15.0
 40
15.0
 40
16.0
 40
16.0
 40
16.0
 40
16.0
 10
60.12715388034641
 20
187.790733799081
 30
0.0
 10
58.15765738696943
 20
193.353809393122
 30
0.0
 10
56.10373452235704
 20
199.046571300336
 30
0.0
 10
54.12805838895339
 20
204.7663772071092
 30
0.0
 10
52.19294825488856
 20
210.3687268896821
 30
0.0
 10
50.33199380114372
 20
215.9985942724435
 30
0.0
 10
48.35450899261032
 20
221.8737093900611
 30
0.0
 10
48.86352185055598
 20
223.0986346216885
 30
0.0
 10
49.48938804099196
 20
224.2893242169312
 30
0.0
 10
50.28946840374768
 20
225.6932006271705
 30
0.0
 10
50.28946840374768
 20
225.6932006271705
 30
0.0
 10
50.51064353390071
 20
226.082668671778
 30
0.0
 10
50.51064353390071
 20
226.082668671778
 30
0.0
 10
51.12076994433846
 20
227.1583997370472
 30
0.0
 10
51.87989673451326
 20
228.4973360973896
 30
0.0
 10
52.60129972912458
 20
229.4099418914323
 30
0.0
 10
52.83039857889369
 20
229.6995021669675
 30
0.0
 10
53.0581193904687
 20
229.9900959711483
 30
0.0
 10
53.28601245681798
 20
230.2806897753291
 30
0.0
 10
53.89269377177048
 20
231.0546304760905
 30
0.0
 10
54.52021791440874
 20
231.8549261573141
 30
0.0
 10
55.15979989124537
 20
232.6205986289108
 30
0.0
 10
56.11542631516011
 20
233.7646717758687
 30
0.0
 10
56.94539288125036
 20
234.6513962900785
 30
0.0
 10
57.76821087420872
 20
235.4084990866557
 30
0.0
 10
57.90388304078721
 20
235.186096641236
 30
0.0
 10
58.14529810691609
 20
235.0116240867549
 30
0.0
 10
58.50636564561706
 20
234.8693416432141
 30
0.0
 10
66.05140467232238
 20
231.8964826216049
 30
0.0
 10
73.5691413173071
 20
228.8537527571854
 30
0.0
 10
81.12740089793706
 20
225.9151724356545
 30
0.0
 10
87.34523842079666
 20
223.4977489336547
 30
0.0
 10
93.60652721046398
 20
221.166754264641
 30
0.0
 10
99.3825312373403
 20
217.7931229788634
 30
0.0
 10
102.3916929526253
 20
216.0355429215228
 30
0.0
 10
105.2043335023233
 20
213.9411617168055
 30
0.0
 10
108.1014434869506
 20
211.9925511148079
 30
0.0
 10
108.2780476942632
 20
211.8737599161071
 30
0.0
 10
108.4167989149317
 20
211.6987275336096
 30
0.0
 10
108.7402072536095
 20
211.3908436564622
 30
0.0
 10
106.8737406470883
 20
209.9041988271898
 30
0.0
 10
105.1242996278319
 20
208.377633953982
 30
0.0
 10
103.242739196716
 20
207.0363721541871
 30
0.0
 10
96.91381887630382
 20
202.5248473614782
 30
0.0
 10
89.83386774010724
 20
199.4747966691526
 30
0.0
 10
82.65146807691802
 20
196.6423683522609
 30
0.0
 10
75.22379914702582
 20
193.7132405114675
 30
0.0
 10
67.78945534463092
 20
190.8010367022455
 30
0.0
 10
60.12715388034641
 20
187.790733799081
 30
0.0
  0
SPLINE
  5
47
330
1F
100
AcDbEntity
  8
Layer 1
370
     0
100
AcDbSpline
210
0.0
220
0.0
230
1.0
 70
    11
 71
     3
 72
    56
 73
    52
 74
     0
 42
0.0000000001
 43
0.0000000001
 12
1.0
 22
0.0
 32
0.0
 13
1.0
 23
0.0
 33
0.0
 40
0.0
 40
0.0
 40
0.0
 40
0.0
 40
1.0
 40
1.0
 40
1.0
 40
2.0
 40
2.0
 40
2.0
 40
3.0
 40
3.0
 40
3.0
 40
4.0
 40
4.0
 40
4.0
 40
5.0
 40
5.0
 40
5.0
 40
6.0
 40
6.0
 40
6.0
 40
7.0
 40
7.0
 40
7.0
 40
8.0
 40
8.0
 40
8.0
 40
9.0
 40
9.0
 40
9.0
 40
10.0
 40
10.0
 40
10.0
 40
11.0
 40
11.0
 40
11.0
 40
12.0
 40
12.0
 40
12.0
 40
13.0
 40
13.0
 40
13.0
 40
14.0
 40
14.0
 40
14.0
 40
15.0
 40
15.0
 40
15.0
 40
16.0
 40
16.0
 40
16.0
 40
17.0
 40
17.0
 40
17.0
 40
17.0
 10
113.49674293086
 20
128.8070817413442
 30
0.0
 10
112.9924024836662
 20
118.6716538874328
 30
0.0
 10
112.8108459515936
 20
108.520098680281
 30
0.0
 10
112.5040601986321
 20
98.37502455901085
 30
0.0
 10
112.4462471900202
 20
96.46271665068902
 30
0.0
 10
110.2172704110636
 20
93.68034987756732
 30
0.0
 10
108.3647995049512
 20
93.34176158690762
 30
0.0
 10
108.1185828369897
 20
93.29676002713154
 30
0.0
 10
107.7229566842023
 20
93.51474844396073
 30
0.0
 10
107.5456203940991
 20
93.73243541493495
 30
0.0
 10
105.5629894741846
 20
96.16587861094118
 30
0.0
 10
104.0328503144112
 20
98.88649204748975
 30
0.0
 10
102.7930035129634
 20
101.7499692874423
 30
0.0
 10
98.42582822108642
 20
111.8361753396082
 30
0.0
 10
92.90290952129527
 20
121.346103044479
 30
0.0
 10
88.16312562084175
 20
131.2461662812076
 30
0.0
 10
83.47822639783764
 20
141.0315724338176
 30
0.0
 10
78.67249045068837
 20
150.7594024281305
 30
0.0
 10
74.03304495624278
 20
160.566082045362
 30
0.0
 10
72.42252741242882
 20
163.9702885535712
 30
0.0
 10
71.17391714934037
 20
167.5445320558244
 30
0.0
 10
69.70789982928586
 20
171.0191046393199
 30
0.0
 10
69.36267972981705
 20
171.8372932852199
 30
0.0
 10
69.63690933044293
 20
172.1395358185103
 30
0.0
 10
70.36429817845988
 20
172.3847835533665
 30
0.0
 10
74.80233477809905
 20
173.881139245538
 30
0.0
 10
79.23520373451038
 20
175.3929763355463
 30
0.0
 10
83.66721141705037
 20
176.9072249923943
 30
0.0
 10
86.70111322428886
 20
177.9437896283656
 30
0.0
 10
89.74907532747652
 20
178.9428673190881
 30
0.0
 10
92.758689211544
 20
180.0461806800861
 30
0.0
 10
99.46562263407516
 20
182.5049022642154
 30
0.0
 10
105.916284016197
 20
185.5375552243405
 30
0.0
 10
112.2438047665682
 20
188.8443085940107
 30
0.0
 10
113.3807939359346
 20
189.4385014378292
 30
0.0
 10
114.5935967378232
 20
189.8986800672714
 30
0.0
 10
115.7978083328455
 20
190.3502674898473
 30
0.0
 10
117.1339670849529
 20
190.8512920326366
 30
0.0
 10
118.4372897707165
 20
191.3661184892136
 30
0.0
 10
119.2040173028056
 20
192.7620281161433
 30
0.0
 10
119.8191821653905
 20
190.1265085380804
 30
0.0
 10
120.7796747866782
 20
186.9390200677401
 30
0.0
 10
121.509755115543
 20
184.084521607896
 30
0.0
 10
121.5355502679888
 20
179.5981675440761
 30
0.0
 10
121.1818466208875
 20
175.0998202415983
 30
0.0
 10
120.4465340532545
 20
170.672506501657
 30
0.0
 10
117.9531031321114
 20
162.8031763305557
 30
0.0
 10
116.2855692580166
 20
154.7439998663704
 30
0.0
 10
115.2265038421572
 20
146.573998986794
 30
0.0
 10
114.4618218355124
 20
140.6746820733925
 30
0.0
 10
113.792181400567
 20
134.7443162369302
 30
0.0
 10
113.49674293086
 20
128.8070817413442
 30
0.0
  0
SPLINE
  5
48
330
1F
100
AcDbEntity
  8
Layer 1
370
     0
100
AcDbSpline
210
0.0
220
0.0
230
1.0
 70
    11
 71
     3
 72
    71
 73
    67
 74
     0
 42
0.0000000001
 43
0.0000000001
 12
1.0
 22
0.0
 32
0.0
 13
1.0
 23
0.0
 33
0.0
 40
0.0
 40
0.0
 40
0.0
 40
0.0
 40
1.0
 40
1.0
 40
1.0
 40
2.0
 40
2.0
 40
2.0
 40
3.0
 40
3.0
 40
3.0
 40
4.0
 40
4.0
 40
4.0
 40
5.0
 40
5.0
 40
5.0
 40
6.0
 40
6.0
 40
6.0
 40
7.0
 40
7.0
 40
7.0
 40
8.0
 40
8.0
 40
8.0
 40
9.0
 40
9.0
 40
9.0
 40
10.0
 40
10.0
 40
10.0
 40
11.0
 40
11.0
 40
11.0
 40
12.0
 40
12.0
 40
12.0
 40
13.0
 40
13.0
 40
13.0
 40
14.0
 40
14.0
 40
14.0
 40
15.0
 40
15.0
 40
15.0
 40
16.0
 40
16.0
 40
16.0
 40
17.0
 40
17.0
 40
17.0
 40
18.0
 40
18.0
 40
18.0
 40
19.0
 40
19.0
 40
19.0
 40
20.0
 40
20.0
 40
20.0
 40
21.0
 40
21.0
 40
21.0
 40
22.0
 40
22.0
 40
22.0
 40
22.0
 10
159.1075893753492
 20
92.3699432142122
 30
0.0
 10
157.0285819092349
 20
89.40561080392898
 30
0.0
 10
154.5918228088241
 20
86.77887621935346
 30
0.0
 10
151.4078224976626
 20
84.94920753898406
 30
0.0
 10
145.2430825089695
 20
81.40659431965487
 30
0.0
 10
138.2106306267758
 20
82.22659164068467
 30
0.0
 10
132.9933564920666
 20
87.06128792175681
 30
0.0
 10
129.5686947294137
 20
90.23484528722862
 30
0.0
 10
127.0781490757394
 20
94.07959338061423
 30
0.0
 10
124.9478527505884
 20
98.18220687107078
 30
0.0
 10
121.8656980747096
 20
104.1179772010755
 30
0.0
 10
119.254638674592
 20
110.2326341141519
 30
0.0
 10
117.927071129351
 20
116.832403535245
 30
0.0
 10
116.7366829799632
 20
122.7502593687265
 30
0.0
 10
116.5011461080061
 20
128.7452853410776
 30
0.0
 10
117.010632666581
 20
134.7171645781371
 30
0.0
 10
117.625689869932
 20
141.9266943682727
 30
0.0
 10
118.6619315282015
 20
149.0996200188775
 30
0.0
 10
119.4681484672904
 20
156.2937330067165
 30
0.0
 10
119.9196282306324
 20
160.3223630716273
 30
0.0
 10
120.3178166731869
 20
164.3569789899437
 30
0.0
 10
120.7249838958498
 20
168.3905829114614
 30
0.0
 10
120.7249838958498
 20
168.3905829114614
 30
0.0
 10
120.7523508731108
 20
168.3852430134592
 30
0.0
 10
120.7523508731108
 20
168.3852430134592
 30
0.0
 10
121.7651228183871
 20
173.5842366102498
 30
0.0
 10
122.2527545524775
 20
178.9005787720066
 30
0.0
 10
122.2150092250672
 20
184.1990925646273
 30
0.0
 10
122.2534220397277
 20
184.5801847208363
 30
0.0
 10
122.2860643194505
 20
184.9346419825749
 30
0.0
 10
122.3549016336151
 20
185.1606617782541
 30
0.0
 10
123.586221823737
 20
189.2032229480334
 30
0.0
 10
126.1872043195603
 20
192.429145764881
 30
0.0
 10
128.64230855343
 20
195.7276524372335
 30
0.0
 10
130.417394002205
 20
198.112584382438
 30
0.0
 10
132.5331778626244
 20
200.1983959121357
 30
0.0
 10
134.9522808486732
 20
201.9460713199562
 30
0.0
 10
135.2244649238548
 20
202.1427001447768
 30
0.0
 10
135.7199773138676
 20
202.2637521873898
 30
0.0
 10
136.0175689682528
 20
202.1569757591938
 30
0.0
 10
141.1916932820092
 20
200.3003061429588
 30
0.0
 10
146.3208375678363
 20
198.3141224683251
 30
0.0
 10
151.5214675849823
 20
196.5366469845573
 30
0.0
 10
157.6588190645678
 20
194.4390144709758
 30
0.0
 10
163.3489110227807
 20
191.4233286061155
 30
0.0
 10
169.0412853567526
 20
188.3901804135144
 30
0.0
 10
171.4076137863368
 20
187.129275465913
 30
0.0
 10
173.7963138047283
 20
185.90144343497
 30
0.0
 10
176.3102215121619
 20
184.7643250745229
 30
0.0
 10
177.4995330692105
 20
180.7745384612083
 30
0.0
 10
178.2830554417902
 20
176.6812913241023
 30
0.0
 10
178.7519329373327
 20
172.5556818212817
 30
0.0
 10
179.2351937065261
 20
168.1259995781942
 30
0.0
 10
179.3707366820239
 20
163.662684590432
 30
0.0
 10
179.2637018716666
 20
159.2028792936954
 30
0.0
 10
179.1512410359199
 20
154.7418036179986
 30
0.0
 10
178.7804411024731
 20
150.2869721778688
 30
0.0
 10
178.295866890626
 20
145.8404089669036
 30
0.0
 10
178.0694810535515
 20
143.7891991149859
 30
0.0
 10
177.8138334366992
 20
141.739690278964
 30
0.0
 10
177.5431350589457
 20
139.6903752295631
 30
0.0
 10
177.0229687043665
 20
137.0508937916921
 30
0.0
 10
176.5015319708272
 20
134.4117137996762
 30
0.0
 10
175.8949583151086
 20
131.7922354474665
 30
0.0
 10
172.6240339384849
 20
117.6669994483936
 30
0.0
 10
167.4890975858732
 20
104.3206564748422
 30
0.0
 10
159.1075893753492
 20
92.3699432142122
 30
0.0
  0
HATCH
  5
49
330
1F
100
AcDbEntity
  8
Layer 1
 62
     7
420
 16777215
100
AcDbHatch
 10
0.0
 20
0.0
 30
0.0
210
0.0
220
0.0
230
1.0
  2
SOLID
 70
     1
 71
     0
 91
        8
 92
        1
 93
        1
 72
     4
 94
        3
 73
     0
 74
     1
 95
      320
 96
      316
 40
0.0
 40
0.0
 40
0.0
 40
0.0
 40
1.0
 40
1.0
 40
1.0
 40
2.0
 40
2.0
 40
2.0
 40
3.0
 40
3.0
 40
3.0
 40
4.0
 40
4.0
 40
4.0
 40
5.0
 40
5.0
 40
5.0
 40
6.0
 40
6.0
 40
6.0
 40
7.0
 40
7.0
 40
7.0
 40
8.0
 40
8.0
 40
8.0
 40
9.0
 40
9.0
 40
9.0
 40
10.0
 40
10.0
 40
10.0
 40
11.0
 40
11.0
 40
11.0
 40
12.0
 40
12.0
 40
12.0
 40
13.0
 40
13.0
 40
13.0
 40
14.0
 40
14.0
 40
14.0
 40
15.0
 40
15.0
 40
15.0
 40
16.0
 40
16.0
 40
16.0
 40
17.0
 40
17.0
 40
17.0
 40
18.0
 40
18.0
 40
18.0
 40
19.0
 40
19.0
 40
19.0
 40
20.0
 40
20.0
 40
20.0
 40
21.0
 40
21.0
 40
21.0
 40
22.0
 40
22.0
 40
22.0
 40
23.0
 40
23.0
 40
23.0
 40
24.0
 40
24.0
 40
24.0
 40
25.0
 40
25.0
 40
25.0
 40
26.0
 40
26.0
 40
26.0
 40
27.0
 40
27.0
 40
27.0
 40
28.0
 40
28.0
 40
28.0
 40
29.0
 40
29.0
 40
29.0
 40
30.0
 40
30.0
 40
30.0
 40
31.0
 40
31.0
 40
31.0
 40
32.0
 40
32.0
 40
32.0
 40
33.0
 40
33.0
 40
33.0
 40
34.0
 40
34.0
 40
34.0
 40
35.0
 40
35.0
 40
35.0
 40
36.0
 40
36.0
 40
36.0
 40
37.0
 40
37.0
 40
37.0
 40
38.0
 40
38.0
 40
38.0
 40
39.0
 40
39.0
 40
39.0
 40
40.0
 40
40.0
 40
40.0
 40
41.0
 40
41.0
 40
41.0
 40
42.0
 40
42.0
 40
42.0
 40
43.0
 40
43.0
 40
43.0
 40
44.0
 40
44.0
 40
44.0
 40
45.0
 40
45.0
 40
45.0
 40
46.0
 40
46.0
 40
46.0
 40
47.0
 40
47.0
 40
47.0
 40
48.0
 40
48.0
 40
48.0
 40
49.0
 40
49.0
 40
49.0
 40
50.0
 40
50.0
 40
50.0
 40
51.0
 40
51.0
 40
51.0
 40
52.0
 40
52.0
 40
52.0
 40
53.0
 40
53.0
 40
53.0
 40
54.0
 40
54.0
 40
54.0
 40
55.0
 40
55.0
 40
55.0
 40
56.0
 40
56.0
 40
56.0
 40
57.0
 40
57.0
 40
57.0
 40
58.0
 40
58.0
 40
58.0
 40
59.0
 40
59.0
 40
59.0
 40
60.0
 40
60.0
 40
60.0
 40
61.0
 40
61.0
 40
61.0
 40
62.0
 40
62.0
 40
62.0
 40
63.0
 40
63.0
 40
63.0
 40
64.0
 40
64.0
 40
64.0
 40
65.0
 40
65.0
 40
65.0
 40
66.0
 40
66.0
 40
66.0
 40
67.0
 40
67.0
 40
67.0
 40
68.0
 40
68.0
 40
68.0
 40
69.0
 40
69.0
 40
69.0
 40
70.0
 40
70.0
 40
70.0
 40
71.0
 40
71.0
 40
71.0
 40
72.0
 40
72.0
 40
72.0
 40
73.0
 40
73.0
 40
73.0
 40
74.0
 40
74.0
 40
74.0
 40
75.0
 40
75.0
 40
75.0
 40
76.0
 40
76.0
 40
76.0
 40
77.0
 40
77.0
 40
77.0
 40
78.0
 40
78.0
 40
78.0
 40
79.0
 40
79.0
 40
79.0
 40
80.0
 40
80.0
 40
80.0
 40
81.0
 40
81.0
 40
81.0
 40
82.0
 40
82.0
 40
82.0
 40
83.0
 40
83.0
 40
83.0
 40
84.0
 40
84.0
 40
84.0
 40
85.0
 40
85.0
 40
85.0
 40
86.0
 40
86.0
 40
86.0
 40
87.0
 40
87.0
 40
87.0
 40
88.0
 40
88.0
 40
88.0
 40
89.0
 40
89.0
 40
89.0
 40
90.0
 40
90.0
 40
90.0
 40
91.0
 40
91.0
 40
91.0
 40
92.0
 40
92.0
 40
92.0
 40
93.0
 40
93.0
 40
93.0
 40
94.0
 40
94.0
 40
94.0
 40
95.0
 40
95.0
 40
95.0
 40
96.0
 40
96.0
 40
96.0
 40
97.0
 40
97.0
 40
97.0
 40
98.0
 40
98.0
 40
98.0
 40
99.0
 40
99.0
 40
99.0
 40
100.0
 40
100.0
 40
100.0
 40
101.0
 40
101.0
 40
101.0
 40
102.0
 40
102.0
 40
102.0
 40
103.0
 40
103.0
 40
103.0
 40
104.0
 40
104.0
 40
104.0
 40
105.0
 40
105.0
 40
105.0
 40
105.0
 10
180.8453667407915
 20
159.1684498706897
 10
180.9302452808094
 20
163.6922693479116
 10
180.7159603416268
 20
168.2347138726006
 10
180.0655478458584
 20
172.722898143397
 10
179.4765226452679
 20
176.9079355433381
 10
178.5011515178533
 20
181.0511796286739
 10
177.0337346277579
 20
185.0123934813077
 10
176.6026455233192
 20
186.3564974848779
 10
176.2039403164419
 20
187.7139727653002
 10
175.6667853347511
 20
189.0142379288207
 10
174.3824752696968
 20
192.1231136265569
 10
173.0550153836897
 20
195.2143116780844
 10
171.71164346291
 20
198.298468815714
 10
170.6925411546796
 20
201.527922855434
 10
169.2234017168416
 20
205.0027753529377
 10
167.7934071764547
 20
208.3762559157879
 10
166.7336958051918
 20
210.8760171998852
 10
165.7328955667268
 20
213.2372856454754
 10
164.9450022292502
 20
215.4192368710584
 10
164.3710493214075
 20
217.0093206922755
 10
164.1860476938496
 20
218.9618285585408
 10
163.9900217607389
 20
221.0288858496907
 10
163.7828853946882
 20
223.2133563013473
 10
163.5629806434954
 20
225.4566302265677
 10
162.8693321993871
 20
227.4550870538676
 10
162.8640999606189
 20
227.4734752510201
 10
162.8563700276239
 20
227.4935429322217
 10
162.8502980468311
 20
227.5124694255438
 10
162.7960593247852
 20
227.6662929389602
 10
162.7377941473909
 20
227.8179417358515
 10
162.6775911037862
 20
227.9686215996376
 10
162.446317537492
 20
228.5765517617035
 10
162.2521218113578
 20
229.2358569101932
 10
162.2987813233362
 20
229.8473828906718
 10
162.7187169311414
 20
235.3523440302461
 10
161.3445114057687
 20
240.5962961231192
 10
160.1225360371506
 20
245.8723737313922
 10
159.1577370465064
 20
250.038010937382
 10
158.7084965952298
 20
254.2548939387149
 10
159.2350363764567
 20
258.5284056970867
 10
159.3204962763377
 20
259.2221187367353
 10
159.1567250497076
 20
259.7435339384278
 10
158.6186226667584
 20
260.1844630968462
 10
157.8144297212671
 20
260.8434237357874
 10
157.0723776855911
 20
261.5872844465932
 10
156.2218482058233
 20
262.1766756885791
 10
155.8181691423391
 20
262.4564174419814
 10
155.231770827056
 20
262.5104408455595
 10
154.7163199469223
 20
262.5851563538958
 10
149.5485475279669
 20
263.3341201123891
 10
144.3802798765354
 20
264.0803923900346
 10
139.2077704512878
 20
264.7956588083128
 10
137.2127587194731
 20
265.071546361141
 10
135.2062705133233
 20
265.2641917943068
 10
133.205574373958
 20
265.4995133477962
 10
132.8651128126282
 20
265.5395625828122
 10
132.5274934550737
 20
265.6036628906846
 10
132.1885391230187
 20
265.6566527656171
 10
132.1885391230187
 20
265.6566527656171
 10
125.754887899855
 20
265.6566527656171
 10
125.754887899855
 20
265.6566527656171
 10
124.0666619210018
 20
265.4797471124495
 10
122.3631052672394
 20
265.3930598973019
 10
120.6929875715306
 20
265.1093993477851
 10
115.2073189666737
 20
264.1777163374929
 10
109.7332990909263
 20
263.1773897996571
 10
104.2562862884765
 20
262.1949777583445
 10
103.6398295150846
 20
262.0844117251148
 10
103.0330190090514
 20
261.9200376067748
 10
102.1665559626642
 20
261.7224183170021
 10
102.3705917427782
 20
260.9096556964914
 10
102.4977372980307
 20
260.0932326620275
 10
102.7782326660704
 20
259.3334168527556
 10
105.7952535054308
 20
251.1609828744928
 10
108.8361962265673
 20
242.9969247846284
 10
111.8888738042004
 20
234.7820730682034
 10
111.9099965458943
 20
234.7766685746609
 10
111.9285354659743
 20
234.7679912404074
 10
111.9491199114987
 20
234.7618761959211
 10
112.6696616322387
 20
232.7570459419735
 10
113.2915874947134
 20
230.7088936122989
 10
113.8079642442588
 20
228.6390371810672
 10
113.7909756171472
 20
228.6453244803278
 10
113.7739008626484
 20
228.651353397427
 10
113.7569122355367
 20
228.6576406966876
 10
110.6127243090767
 20
229.8227073942587
 10
107.813605759158
 20
231.6828221059791
 10
105.3979694004412
 20
234.0587322073816
 10
105.2490120843977
 20
234.2052348928918
 10
105.0388612597977
 20
234.2875511431425
 10
104.87614509366
 20
234.4225773543176
 10
104.6399837981462
 20
234.6185602237347
 10
104.4211125755989
 20
234.8353859208376
 10
104.1948559296051
 20
235.0433189652192
 10
104.4832534854141
 20
235.1331498299971
 10
104.7787134869678
 20
235.3180653301679
 10
105.058864345459
 20
235.2972440343289
 10
106.7470903243118
 20
235.171821026819
 10
108.4312683159697
 20
234.9931712940621
 10
110.1180731929352
 20
234.8472284365681
 10
110.4912846932216
 20
234.8149521982407
 10
110.869663836736
 20
234.8424914302759
 10
111.3332875616635
 20
234.8424914302759
 10
111.2547609164466
 20
235.151107390214
 10
111.2171232482702
 20
235.3884314054541
 10
111.1349146572534
 20
235.6091543668247
 10
108.2048178833549
 20
243.4758145889249
 10
105.2640413134521
 20
251.3384914193703
 10
102.347315816406
 20
259.2100824343837
 10
102.0673372126891
 20
259.9657425972264
 10
101.9333660620064
 20
260.7755122910344
 10
101.717186320307
 20
261.6162447805161
 10
100.9227688332551
 20
261.4384563216304
 10
100.0444632711375
 20
261.2149772838716
 10
99.15427212959571
 20
261.059689604874
 10
98.8984953216627
 20
261.0150540864932
 10
98.46327210264172
 20
261.0756447033401
 10
98.35724928908316
 20
261.2437222993267
 10
97.5743944037537
 20
262.4847318205008
 10
96.31708527456499
 20
262.8940952915356
 10
95.02013601544913
 20
263.1761409525437
 10
90.98465882326138
 20
264.0537359637175
 10
86.87302348900283
 20
264.1195372874857
 10
82.78457795372937
 20
263.9450216693111
 10
78.0991189027089
 20
263.7450123445456
 10
73.42694500115341
 20
263.2403704514968
 10
68.74773018569995
 20
262.8849873203465
 10
66.23530817569437
 20
262.694193626004
 10
63.72021621668773
 20
262.5388844151595
 10
61.14726818537567
 20
262.3635290549603
 10
61.02613001537557
 20
261.0306216117172
 10
61.01579472891982
 20
259.6101010839147
 10
60.74869216957905
 20
258.2396420998824
 10
60.11759374037484
 20
255.0015968532961
 10
59.31415440952102
 20
251.7972058832313
 10
58.67784527339537
 20
248.5600649742098
 10
58.24148086649491
 20
246.3401315709019
 10
57.94955208781356
 20
244.0905703464209
 10
57.65004409906465
 20
241.8466719976438
 10
57.61649748177702
 20
241.5952661546077
 10
57.90207436565746
 20
241.1170223057147
 10
58.13054879186987
 20
241.0489386061874
 10
58.85731321633011
 20
240.8323712912459
 10
58.87651962366037
 20
240.402595629461
 10
58.70508305957563
 20
239.8166710148071
 10
58.36993986440117
 20
238.6712413615019
 10
58.05090249062025
 20
237.521117765598
 10
57.7161253368411
 20
236.3755804530589
 10
57.70548860453039
 20
236.3391701001491
 10
57.70113917148026
 20
236.3069799892089
 10
57.69263409200105
 20
236.2720338018804
 10
57.56701729787013
 20
236.1701235710573
 10
57.4420249272959
 20
236.0669644931208
 10
57.32349211075653
 20
235.9583793897951
 10
56.46635235402637
 20
235.1732421287067
 10
55.60680103045654
 20
234.2563299653075
 10
54.61823088096409
 20
233.0729396661241
 10
53.9715864583827
 20
232.2988267105885
 10
53.34078947503345
 20
231.4942246600084
 10
52.73066306459571
 20
230.7159775898905
 10
52.50345901734348
 20
230.4260728048067
 10
52.27625497009125
 20
230.1363402744972
 10
52.04784513941919
 20
229.847469018059
 10
51.29285246382669
 20
228.8924885495477
 10
50.51891176306531
 20
227.5273694635175
 10
49.89689977320345
 20
226.4306233157882
 10
49.89689977320345
 20
226.4306233157882
 10
49.67658591692173
 20
226.0425333093748
 10
49.67658591692173
 20
226.0425333093748
 10
48.82648707408955
 20
224.5511945375037
 10
48.15053780803674
 20
223.2559032305901
 10
47.6049208105603
 20
221.898104972466
 10
45.73434162130356
 20
220.8392979387681
 10
43.9399421059644
 20
219.9255940205394
 10
42.31491209741883
 20
218.7751905106274
 10
39.64364965369646
 20
216.884156066927
 10
37.10721963452804
 20
214.8006699766818
 10
34.54480067629278
 20
212.7596446882923
 10
34.06147531155901
 20
212.3746552678156
 10
33.7118627153465
 20
212.2522467188554
 10
33.142259240554
 20
212.5739755734841
 10
31.02755197247374
 20
213.7684763056074
 10
29.01137443527162
 20
213.4567597597326
 10
27.17089676781725
 20
211.9771127806646
 10
25.77156357724911
 20
210.8521168499562
 10
24.40973886377663
 20
209.6759827831387
 10
23.08494892677059
 20
208.4638690003472
 10
21.04183504924318
 20
206.5945386582038
 10
20.56514149331851
 20
204.0437684290781
 10
20.16968759530539
 20
201.4716601397905
 10
20.11325262488765
 20
201.1046282795307
 10
20.0422836578915
 20
200.7398141994895
 10
19.97803262709159
 20
200.3739665908028
 10
19.97803262709159
 20
200.3739665908028
 10
19.97803262709159
 20
194.8864462471226
 10
19.97803262709159
 20
194.8864462471226
 10
20.10175461870562
 20
193.5128651453067
 10
20.25441541239576
 20
192.1411142504673
 10
20.34209309249537
 20
190.7652292410457
 10
20.46036752687335
 20
188.9096362171498
 10
20.57922332111447
 20
187.0513301805592
 10
20.59758998642021
 20
185.1932179305897
 10
20.60721472193212
 20
184.2201507107809
 10
21.03472953980485
 20
183.6499012805849
 10
21.86721533196869
 20
183.3154686363543
 10
22.68262636963376
 20
182.9878831194006
 10
23.54504142882571
 20
182.7634566803834
 10
24.32899443834109
 20
182.3765939892366
 10
24.80097251982032
 20
182.1437055344337
 10
25.29288909142043
 20
181.763474652096
 10
25.5534890330328
 20
181.3190788663456
 10
28.08524664144933
 20
177.0016421405369
 10
30.48019089540789
 20
172.6033963937524
 10
33.57961411240647
 20
168.6413643309408
 10
35.28429042220166
 20
166.4622553091332
 10
37.26931137710905
 20
164.5853888206158
 10
39.44372645631805
 20
162.9024381442245
 10
42.01335858322555
 20
160.9135845205898
 10
44.1810772580851
 20
158.557419122687
 10
45.96546446467026
 20
155.8555599246863
 10
48.48113778354004
 20
152.0464039740327
 10
50.9955837871432
 20
148.2352024979347
 10
53.43234288755397
 20
144.375489771035
 10
55.86406353581756
 20
140.5237653592918
 10
56.94343348319313
 20
136.1857011242652
 10
57.6162821633092
 20
131.7469539736822
 10
59.22249333776659
 20
121.1508307260057
 10
58.98297307415459
 20
110.5021267084856
 10
58.34194846358351
 20
99.85434856037713
 10
58.1776174089371
 20
97.12475634372012
 10
57.60555930361136
 20
94.41906447699202
 10
57.45455646212351
 20
91.68947226033501
 10
57.27198793325204
 20
88.38965214532881
 10
57.23344592751081
 20
85.07340323122732
 10
57.31856131784326
 20
81.76906142839671
 10
57.48498096162761
 20
75.3085815241416
 10
57.7696104442496
 20
68.8509868873554
 10
58.0257748254247
 20
62.39302620917388
 10
58.26307730881808
 20
56.41046717611006
 10
58.55078584553
 20
50.43124557929757
 10
60.26840279524166
 20
44.63538918968751
 10
61.06839703061024
 20
41.93596309037321
 10
62.16932035661539
 20
39.36962533602348
 10
63.78037619659891
 20
37.04810467959431
 10
63.96434429551125
 20
36.78298305015755
 10
64.33585477990188
 20
36.53706782805106
 10
64.65114561234259
 20
36.49051597530663
 10
70.73298799092196
 20
35.59283175108443
 10
76.82247417510922
 20
34.84483692569634
 10
82.9991212750733
 20
35.16637199370407
 10
87.57791155713173
 20
35.40468647389623
 10
91.32264422221117
 20
37.01171585853136
 10
93.65512458865278
 20
41.1734773321003
 10
94.39295638235939
 20
42.48995597624818
 10
95.18612502229782
 20
43.78311563033026
 10
95.81877374447038
 20
45.14954815901427
 10
98.33838739130142
 20
50.59152864674882
 10
100.0031436571613
 20
56.32763416153659
 10
101.5245408871412
 20
62.1083967265519
 10
103.5566950546561
 20
69.8298461739488
 10
105.574056843431
 20
77.55521441746016
 10
107.6178812719022
 20
85.2735848107671
 10
107.7428305787829
 20
85.7454767648592
 10
107.6331042875777
 20
86.586295381728
 10
108.6235907714338
 20
86.21685195462851
 10
109.0032833576019
 20
83.69342717091692
 10
109.344606192803
 20
81.1094117703585
 10
109.7868918575687
 20
78.54279410200058
 10
111.3201961988195
 20
69.64538284256045
 10
113.9338824842447
 20
61.05650141567121
 10
117.2846254168922
 20
52.68507010944158
 10
120.4774322533879
 20
44.70820989550698
 10
124.1705746135757
 20
36.96021168102688
 10
128.0471037128127
 20
29.2976087708874
 10
128.3302259661599
 20
28.73797454115535
 10
128.7247970584549
 20
28.23572268309949
 10
129.0272549102131
 20
27.684658128387
 10
130.4390765719153
 20
25.11239911617199
 10
132.7202680793202
 20
24.03234014969938
 10
135.5362460652699
 20
23.81753844619405
 10
136.6309897512483
 20
23.73403794437031
 10
137.7198767749019
 20
23.57377640876584
 10
138.8114337475565
 20
23.44846106048988
 10
138.8114337475565
 20
23.44846106048988
 10
147.1373251978405
 20
23.44846106048988
 10
147.1373251978405
 20
23.44846106048988
 10
147.6341294986603
 20
23.50125714880134
 10
148.1297064842135
 20
23.57862107429198
 10
148.6278888232274
 20
23.60299512485012
 10
152.6547102130085
 20
23.80014071399354
 10
156.6818115167977
 20
23.99233397837692
 10
160.709300393829
 20
24.17572071742612
 10
163.2450198620536
 20
24.29119601172234
 10
165.0667863546537
 20
25.5423039690376
 10
166.1828465689472
 20
27.75829704438421
 10
168.0623830064656
 20
31.49017519693432
 10
170.0043402678074
 20
35.20013392945952
 10
171.6711851228051
 20
39.02767807726566
 10
178.7063715495403
 20
55.18241982669919
 10
180.3200542748313
 20
71.85035161235426
 10
179.6577131359452
 20
88.77670862309662
 10
179.3325176539844
 20
97.08795841756829
 10
180.8441394255249
 20
106.0144161383185
 10
179.7938159394594
 20
114.4201046127795
 10
178.6862608046451
 20
123.2836247453835
 10
178.7123574029459
 20
135.7746797010281
 10
179.6251785154564
 20
144.5525676789769
 10
179.6327146618304
 20
144.625022343401
 10
179.6348893783554
 20
144.6806821673346
 10
179.6342649547987
 20
144.7276000614744
 10
179.6793311101152
 20
145.0376155914533
 10
179.7260121539403
 20
145.347351207424
 10
179.768774401651
 20
145.6577758424918
 10
180.3888269934556
 20
150.1293590594186
 10
180.762146152976
 20
154.6429724412655
 10
180.8453667407915
 20
159.1684498706897
 97
        0
 97
        0
 92
        1
 93
        1
 72
     4
 94
        3
 73
     0
 74
     1
 95
       35
 96
       31
 40
0.0
 40
0.0
 40
0.0
 40
0.0
 40
1.0
 40
1.0
 40
1.0
 40
2.0
 40
2.0
 40
2.0
 40
3.0
 40
3.0
 40
3.0
 40
4.0
 40
4.0
 40
4.0
 40
5.0
 40
5.0
 40
5.0
 40
6.0
 40
6.0
 40
6.0
 40
7.0
 40
7.0
 40
7.0
 40
8.0
 40
8.0
 40
8.0
 40
9.0
 40
9.0
 40
9.0
 40
10.0
 40
10.0
 40
10.0
 40
10.0
 10
155.3650314267949
 20
219.9482885870485
 10
157.9617936806487
 20
221.8063793051712
 10
160.3899185104996
 20
223.8531105329582
 10
162.4925894762283
 20
226.2716752228375
 10
162.9370929212126
 20
224.5920404508507
 10
163.1174006061719
 20
222.7573117864873
 10
163.2875667912965
 20
220.9622232520511
 10
163.4877268389895
 20
218.8495184457217
 10
163.6772070906782
 20
216.8537746311164
 10
164.281476838791
 20
215.1798027348335
 10
165.0755713481411
 20
212.9795925031787
 10
166.08016119164
 20
210.6098835736496
 10
167.1436621679366
 20
208.1009927865164
 10
168.0612418185861
 20
205.9364823568275
 10
168.9936353798222
 20
203.7305231220817
 10
169.8130944046824
 20
201.5784150361397
 10
169.7458935108733
 20
201.6181197616072
 10
169.6797261457097
 20
201.6578460189215
 10
169.618532637153
 20
201.6986058048813
 10
169.1262284923107
 20
202.0265573632304
 10
168.5077907890148
 20
202.2320573089255
 10
168.131543298332
 20
202.6567083911761
 10
165.0387518901425
 20
206.1471714775973
 10
161.0163014652584
 20
208.3471879226311
 10
157.0814641249335
 20
210.6563492990069
 10
154.3762459588346
 20
212.2439354259972
 10
151.59704436719
 20
213.7054310582273
 10
148.7735948304067
 20
215.2659947175051
 10
151.0092034181725
 20
216.8532363349469
 10
153.1922527679414
 20
218.3935815900956
 10
155.3650314267949
 20
219.9482885870485
 97
        0
 97
        0
 92
        1
 93
        1
 72
     4
 94
        3
 73
     0
 74
     1
 95
       32
 96
       28
 40
0.0
 40
0.0
 40
0.0
 40
0.0
 40
1.0
 40
1.0
 40
1.0
 40
2.0
 40
2.0
 40
2.0
 40
3.0
 40
3.0
 40
3.0
 40
4.0
 40
4.0
 40
4.0
 40
5.0
 40
5.0
 40
5.0
 40
6.0
 40
6.0
 40
6.0
 40
7.0
 40
7.0
 40
7.0
 40
8.0
 40
8.0
 40
8.0
 40
9.0
 40
9.0
 40
9.0
 40
9.0
 10
112.8420025338883
 20
234.3538476993868
 10
119.1185143392311
 20
235.9958017395037
 10
125.2491048189267
 20
237.642169808211
 10
131.4045430498097
 20
239.154437535155
 10
138.1562411818024
 20
240.8131864157624
 10
144.9992989396945
 20
241.9751955910904
 10
151.9392930718028
 20
242.466466207287
 10
151.9895699340406
 20
242.3851619538351
 10
152.0398467962785
 20
242.30387923223
 10
152.0901236585164
 20
242.2225965106249
 10
151.6024273288857
 20
241.7300770473149
 10
151.1605077055153
 20
241.1793354703041
 10
150.6198860964925
 20
240.7541030281904
 10
145.4940361832231
 20
236.7222647181089
 10
140.3024495417259
 20
232.7720967028747
 10
135.239903257998
 20
228.6627868080687
 10
133.4407667363666
 20
227.2024108318713
 10
131.9568779834824
 20
225.3565071390276
 10
130.2930045233407
 20
223.7233811560917
 10
130.0597500271425
 20
223.4944114974033
 10
129.5599527996199
 20
223.2959739974529
 10
129.2840221830981
 20
223.3872474959653
 10
124.3807469700227
 20
225.0088324090256
 10
119.4567365884955
 20
226.5788485490411
 10
114.6068172917479
 20
228.3481419310315
 10
114.1168170545114
 20
230.375580624101
 10
113.5260693061782
 20
232.3840282283081
 10
112.8420025338883
 20
234.3538476993868
 97
        0
 97
        0
 92
        1
 93
        1
 72
     4
 94
        3
 73
     0
 74
     1
 95
       50
 96
       46
 40
0.0
 40
0.0
 40
0.0
 40
0.0
 40
1.0
 40
1.0
 40
1.0
 40
2.0
 40
2.0
 40
2.0
 40
3.0
 40
3.0
 40
3.0
 40
4.0
 40
4.0
 40
4.0
 40
5.0
 40
5.0
 40
5.0
 40
6.0
 40
6.0
 40
6.0
 40
7.0
 40
7.0
 40
7.0
 40
8.0
 40
8.0
 40
8.0
 40
9.0
 40
9.0
 40
9.0
 40
10.0
 40
10.0
 40
10.0
 40
11.0
 40
11.0
 40
11.0
 40
12.0
 40
12.0
 40
12.0
 40
13.0
 40
13.0
 40
13.0
 40
14.0
 40
14.0
 40
14.0
 40
15.0
 40
15.0
 40
15.0
 40
15.0
 10
115.8459750740987
 20
207.7633303652684
 10
115.3480080535526
 20
211.0222184395405
 10
114.972234263499
 20
214.2998176886668
 10
114.5603300345438
 20
217.5716464028554
 10
114.5396379297855
 20
217.7358913301146
 10
114.6037382376579
 20
217.9108160533782
 10
114.6283706703775
 20
218.0807669200349
 10
114.7216896943342
 20
218.0932123274754
 10
114.8150087182909
 20
218.1056792667626
 10
114.9083277422476
 20
218.1181246742031
 10
114.9906439924983
 20
217.6031905583922
 10
115.0871066660853
 20
217.0900435858642
 10
115.1526280758454
 20
216.5729778172218
 10
115.3422590504616
 20
215.0769666345988
 10
115.5533572763203
 20
213.5825488086378
 10
115.692280751763
 20
212.0815853012548
 10
115.8413026633468
 20
210.4712615440619
 10
116.7710908711222
 20
209.6426084206254
 10
118.4614915665004
 20
209.3123960183642
 10
118.1015867475257
 20
208.6679478441546
 10
117.8124571089261
 20
208.0938442133845
 10
117.4680336877882
 20
207.555074343185
 10
117.2667109203689
 20
207.2401495521396
 10
116.9645545144657
 20
206.9916289765724
 10
116.729469811291
 20
206.6959751883976
 10
116.0177346158852
 20
205.8008532539426
 10
115.6757442934338
 20
204.9061404245764
 10
116.0903830669304
 20
203.6821410623607
 10
116.9754711607846
 20
201.069402178194
 10
117.689230349788
 20
198.3985919032541
 10
118.4707933243105
 20
195.7508637680653
 10
118.5131464669323
 20
195.6073970729515
 10
118.5334509984485
 20
195.4574277601092
 10
118.5640046890333
 20
195.3104729058165
 10
118.5038016454286
 20
195.2921493042043
 10
118.4435986018238
 20
195.2738041707454
 10
118.3833955582191
 20
195.2554805691332
 10
117.3996054787124
 20
198.3635165248449
 10
116.4054585809033
 20
201.4683872990795
 10
115.4492723289722
 20
204.5849068024237
 10
115.3609702253159
 20
204.8727660620631
 10
115.4111394283198
 20
205.3032738066386
 10
115.5747599320224
 20
205.5493397516726
 10
116.050958255471
 20
206.2655105075157
 10
115.970558339584
 20
206.9480700505308
 10
115.8459750740987
 20
207.7633303652684
 97
        0
 97
        0
 92
        1
 93
        1
 72
     4
 94
        3
 73
     0
 74
     1
 95
       14
 96
       10
 40
0.0
 40
0.0
 40
0.0
 40
0.0
 40
1.0
 40
1.0
 40
1.0
 40
2.0
 40
2.0
 40
2.0
 40
3.0
 40
3.0
 40
3.0
 40
3.0
 10
114.7903332218778
 20
220.6300083880391
 10
114.7903332218778
 20
220.6300083880391
 10
114.4265311386354
 20
220.5648960833679
 10
114.4265311386354
 20
220.5648960833679
 10
114.1714002861059
 20
222.0497753012041
 10
113.9162694335763
 20
223.5346329871936
 10
113.6611601128936
 20
225.0194906731831
 10
114.6303946639751
 20
223.6730612301603
 10
114.5500808754752
 20
222.1197753350951
 10
114.7903332218778
 20
220.6300083880391
 97
        0
 97
        0
 92
        1
 93
        1
 72
     4
 94
        3
 73
     0
 74
     1
 95
       53
 96
       49
 40
0.0
 40
0.0
 40
0.0
 40
0.0
 40
1.0
 40
1.0
 40
1.0
 40
2.0
 40
2.0
 40
2.0
 40
3.0
 40
3.0
 40
3.0
 40
4.0
 40
4.0
 40
4.0
 40
5.0
 40
5.0
 40
5.0
 40
6.0
 40
6.0
 40
6.0
 40
7.0
 40
7.0
 40
7.0
 40
8.0
 40
8.0
 40
8.0
 40
9.0
 40
9.0
 40
9.0
 40
10.0
 40
10.0
 40
10.0
 40
11.0
 40
11.0
 40
11.0
 40
12.0
 40
12.0
 40
12.0
 40
13.0
 40
13.0
 40
13.0
 40
14.0
 40
14.0
 40
14.0
 40
15.0
 40
15.0
 40
15.0
 40
16.0
 40
16.0
 40
16.0
 40
16.0
 10
60.12715388034641
 20
187.790733799081
 10
58.15765738696943
 20
193.353809393122
 10
56.10373452235704
 20
199.046571300336
 10
54.12805838895339
 20
204.7663772071092
 10
52.19294825488856
 20
210.3687268896821
 10
50.33199380114372
 20
215.9985942724435
 10
48.35450899261032
 20
221.8737093900611
 10
48.86352185055598
 20
223.0986346216885
 10
49.48938804099196
 20
224.2893242169312
 10
50.28946840374768
 20
225.6932006271705
 10
50.28946840374768
 20
225.6932006271705
 10
50.51064353390071
 20
226.082668671778
 10
50.51064353390071
 20
226.082668671778
 10
51.12076994433846
 20
227.1583997370472
 10
51.87989673451326
 20
228.4973360973896
 10
52.60129972912458
 20
229.4099418914323
 10
52.83039857889369
 20
229.6995021669675
 10
53.0581193904687
 20
229.9900959711483
 10
53.28601245681798
 20
230.2806897753291
 10
53.89269377177048
 20
231.0546304760905
 10
54.52021791440874
 20
231.8549261573141
 10
55.15979989124537
 20
232.6205986289108
 10
56.11542631516011
 20
233.7646717758687
 10
56.94539288125036
 20
234.6513962900785
 10
57.76821087420872
 20
235.4084990866557
 10
57.90388304078721
 20
235.186096641236
 10
58.14529810691609
 20
235.0116240867549
 10
58.50636564561706
 20
234.8693416432141
 10
66.05140467232238
 20
231.8964826216049
 10
73.5691413173071
 20
228.8537527571854
 10
81.12740089793706
 20
225.9151724356545
 10
87.34523842079666
 20
223.4977489336547
 10
93.60652721046398
 20
221.166754264641
 10
99.3825312373403
 20
217.7931229788634
 10
102.3916929526253
 20
216.0355429215228
 10
105.2043335023233
 20
213.9411617168055
 10
108.1014434869506
 20
211.9925511148079
 10
108.2780476942632
 20
211.8737599161071
 10
108.4167989149317
 20
211.6987275336096
 10
108.7402072536095
 20
211.3908436564622
 10
106.8737406470883
 20
209.9041988271898
 10
105.1242996278319
 20
208.377633953982
 10
103.242739196716
 20
207.0363721541871
 10
96.91381887630382
 20
202.5248473614782
 10
89.83386774010724
 20
199.4747966691526
 10
82.65146807691802
 20
196.6423683522609
 10
75.22379914702582
 20
193.7132405114675
 10
67.78945534463092
 20
190.8010367022455
 10
60.12715388034641
 20
187.790733799081
 97
        0
 97
        0
 92
        1
 93
        1
 72
     4
 94
        3
 73
     0
 74
     1
 95
       56
 96
       52
 40
0.0
 40
0.0
 40
0.0
 40
0.0
 40
1.0
 40
1.0
 40
1.0
 40
2.0
 40
2.0
 40
2.0
 40
3.0
 40
3.0
 40
3.0
 40
4.0
 40
4.0
 40
4.0
 40
5.0
 40
5.0
 40
5.0
 40
6.0
 40
6.0
 40
6.0
 40
7.0
 40
7.0
 40
7.0
 40
8.0
 40
8.0
 40
8.0
 40
9.0
 40
9.0
 40
9.0
 40
10.0
 40
10.0
 40
10.0
 40
11.0
 40
11.0
 40
11.0
 40
12.0
 40
12.0
 40
12.0
 40
13.0
 40
13.0
 40
13.0
 40
14.0
 40
14.0
 40
14.0
 40
15.0
 40
15.0
 40
15.0
 40
16.0
 40
16.0
 40
16.0
 40
17.0
 40
17.0
 40
17.0
 40
17.0
 10
113.49674293086
 20
128.8070817413442
 10
112.9924024836662
 20
118.6716538874328
 10
112.8108459515936
 20
108.520098680281
 10
112.5040601986321
 20
98.37502455901085
 10
112.4462471900202
 20
96.46271665068902
 10
110.2172704110636
 20
93.68034987756732
 10
108.3647995049512
 20
93.34176158690762
 10
108.1185828369897
 20
93.29676002713154
 10
107.7229566842023
 20
93.51474844396073
 10
107.5456203940991
 20
93.73243541493495
 10
105.5629894741846
 20
96.16587861094118
 10
104.0328503144112
 20
98.88649204748975
 10
102.7930035129634
 20
101.7499692874423
 10
98.42582822108642
 20
111.8361753396082
 10
92.90290952129527
 20
121.346103044479
 10
88.16312562084175
 20
131.2461662812076
 10
83.47822639783764
 20
141.0315724338176
 10
78.67249045068837
 20
150.7594024281305
 10
74.03304495624278
 20
160.566082045362
 10
72.42252741242882
 20
163.9702885535712
 10
71.17391714934037
 20
167.5445320558244
 10
69.70789982928586
 20
171.0191046393199
 10
69.36267972981705
 20
171.8372932852199
 10
69.63690933044293
 20
172.1395358185103
 10
70.36429817845988
 20
172.3847835533665
 10
74.80233477809905
 20
173.881139245538
 10
79.23520373451038
 20
175.3929763355463
 10
83.66721141705037
 20
176.9072249923943
 10
86.70111322428886
 20
177.9437896283656
 10
89.74907532747652
 20
178.9428673190881
 10
92.758689211544
 20
180.0461806800861
 10
99.46562263407516
 20
182.5049022642154
 10
105.916284016197
 20
185.5375552243405
 10
112.2438047665682
 20
188.8443085940107
 10
113.3807939359346
 20
189.4385014378292
 10
114.5935967378232
 20
189.8986800672714
 10
115.7978083328455
 20
190.3502674898473
 10
117.1339670849529
 20
190.8512920326366
 10
118.4372897707165
 20
191.3661184892136
 10
119.2040173028056
 20
192.7620281161433
 10
119.8191821653905
 20
190.1265085380804
 10
120.7796747866782
 20
186.9390200677401
 10
121.509755115543
 20
184.084521607896
 10
121.5355502679888
 20
179.5981675440761
 10
121.1818466208875
 20
175.0998202415983
 10
120.4465340532545
 20
170.672506501657
 10
117.9531031321114
 20
162.8031763305557
 10
116.2855692580166
 20
154.7439998663704
 10
115.2265038421572
 20
146.573998986794
 10
114.4618218355124
 20
140.6746820733925
 10
113.792181400567
 20
134.7443162369302
 10
113.49674293086
 20
128.8070817413442
 97
        0
 97
        0
 92
        1
 93
        1
 72
     4
 94
        3
 73
     0
 74
     1
 95
       71
 96
       67
 40
0.0
 40
0.0
 40
0.0
 40
0.0
 40
1.0
 40
1.0
 40
1.0
 40
2.0
 40
2.0
 40
2.0
 40
3.0
 40
3.0
 40
3.0
 40
4.0
 40
4.0
 40
4.0
 40
5.0
 40
5.0
 40
5.0
 40
6.0
 40
6.0
 40
6.0
 40
7.0
 40
7.0
 40
7.0
 40
8.0
 40
8.0
 40
8.0
 40
9.0
 40
9.0
 40
9.0
 40
10.0
 40
10.0
 40
10.0
 40
11.0
 40
11.0
 40
11.0
 40
12.0
 40
12.0
 40
12.0
 40
13.0
 40
13.0
 40
13.0
 40
14.0
 40
14.0
 40
14.0
 40
15.0
 40
15.0
 40
15.0
 40
16.0
 40
16.0
 40
16.0
 40
17.0
 40
17.0
 40
17.0
 40
18.0
 40
18.0
 40
18.0
 40
19.0
 40
19.0
 40
19.0
 40
20.0
 40
20.0
 40
20.0
 40
21.0
 40
21.0
 40
21.0
 40
22.0
 40
22.0
 40
22.0
 40
22.0
 10
159.1075893753492
 20
92.3699432142122
 10
157.0285819092349
 20
89.40561080392898
 10
154.5918228088241
 20
86.77887621935346
 10
151.4078224976626
 20
84.94920753898406
 10
145.2430825089695
 20
81.40659431965487
 10
138.2106306267758
 20
82.22659164068467
 10
132.9933564920666
 20
87.06128792175681
 10
129.5686947294137
 20
90.23484528722862
 10
127.0781490757394
 20
94.07959338061423
 10
124.9478527505884
 20
98.18220687107078
 10
121.8656980747096
 20
104.1179772010755
 10
119.254638674592
 20
110.2326341141519
 10
117.927071129351
 20
116.832403535245
 10
116.7366829799632
 20
122.7502593687265
 10
116.5011461080061
 20
128.7452853410776
 10
117.010632666581
 20
134.7171645781371
 10
117.625689869932
 20
141.9266943682727
 10
118.6619315282015
 20
149.0996200188775
 10
119.4681484672904
 20
156.2937330067165
 10
119.9196282306324
 20
160.3223630716273
 10
120.3178166731869
 20
164.3569789899437
 10
120.7249838958498
 20
168.3905829114614
 10
120.7249838958498
 20
168.3905829114614
 10
120.7523508731108
 20
168.3852430134592
 10
120.7523508731108
 20
168.3852430134592
 10
121.7651228183871
 20
173.5842366102498
 10
122.2527545524775
 20
178.9005787720066
 10
122.2150092250672
 20
184.1990925646273
 10
122.2534220397277
 20
184.5801847208363
 10
122.2860643194505
 20
184.9346419825749
 10
122.3549016336151
 20
185.1606617782541
 10
123.586221823737
 20
189.2032229480334
 10
126.1872043195603
 20
192.429145764881
 10
128.64230855343
 20
195.7276524372335
 10
130.417394002205
 20
198.112584382438
 10
132.5331778626244
 20
200.1983959121357
 10
134.9522808486732
 20
201.9460713199562
 10
135.2244649238548
 20
202.1427001447768
 10
135.7199773138676
 20
202.2637521873898
 10
136.0175689682528
 20
202.1569757591938
 10
141.1916932820092
 20
200.3003061429588
 10
146.3208375678363
 20
198.3141224683251
 10
151.5214675849823
 20
196.5366469845573
 10
157.6588190645678
 20
194.4390144709758
 10
163.3489110227807
 20
191.4233286061155
 10
169.0412853567526
 20
188.3901804135144
 10
171.4076137863368
 20
187.129275465913
 10
173.7963138047283
 20
185.90144343497
 10
176.3102215121619
 20
184.7643250745229
 10
177.4995330692105
 20
180.7745384612083
 10
178.2830554417902
 20
176.6812913241023
 10
178.7519329373327
 20
172.5556818212817
 10
179.2351937065261
 20
168.1259995781942
 10
179.3707366820239
 20
163.662684590432
 10
179.2637018716666
 20
159.2028792936954
 10
179.1512410359199
 20
154.7418036179986
 10
178.7804411024731
 20
150.2869721778688
 10
178.295866890626
 20
145.8404089669036
 10
178.0694810535515
 20
143.7891991149859
 10
177.8138334366992
 20
141.739690278964
 10
177.5431350589457
 20
139.6903752295631
 10
177.0229687043665
 20
137.0508937916921
 10
176.5015319708272
 20
134.4117137996762
 10
175.8949583151086
 20
131.7922354474665
 10
172.6240339384849
 20
117.6669994483936
 10
167.4890975858732
 20
104.3206564748422
 10
159.1075893753492
 20
92.3699432142122
 97
        0
 97
        0
 75
     2
 76
     1
 98
        0
  0
ENDSEC
  0
SECTION
  2
OBJECTS
  0
DICTIONARY
  5
C
330
0
100
AcDbDictionary
281
     1
  3
ACAD_GROUP
350
D
  3
ACAD_LAYOUT
350
1A
  3
ACAD_MATERIAL
350
3B
  3
ACAD_MLEADERSTYLE
350
4B
  3
ACAD_MLINESTYLE
350
17
  3
ACAD_PLOTSETTINGS
350
19
  3
ACAD_PLOTSTYLENAME
350
E
  3
ACAD_TABLESTYLE
350
4A
  3
ACAD_VISUALSTYLE
350
2A
  0
SUN
  5
3F
330
29
100
AcDbSun
 90
        1
290
     0
 63
     7
421
 16777215
 40
1.0
291
     1
 91
  2455826
 92
 54000000
292
     0
 70
     2
 71
   256
280
     1
  0
DICTIONARY
  5
D
102
{ACAD_REACTORS
330
C
102
}
330
C
100
AcDbDictionary
281
     1
  0
DICTIONARY
  5
1A
102
{ACAD_REACTORS
330
C
102
}
330
C
100
AcDbDictionary
281
     1
  3
Layout1
350
1E
  3
Layout2
350
26
  3
Model
350
22
  0
DICTIONARY
  5
3B
102
{ACAD_REACTORS
330
C
102
}
330
C
100
AcDbDictionary
281
     1
  3
ByBlock
350
3D
  3
ByLayer
350
3C
  3
Global
350
3E
  0
DICTIONARY
  5
4B
102
{ACAD_REACTORS
330
C
102
}
330
C
100
AcDbDictionary
281
     1
  0
DICTIONARY
  5
17
102
{ACAD_REACTORS
330
C
102
}
330
C
100
AcDbDictionary
281
     1
  3
Standard
350
18
  0
DICTIONARY
  5
19
102
{ACAD_REACTORS
330
C
102
}
330
C
100
AcDbDictionary
281
     1
  0
ACDBDICTIONARYWDFLT
  5
E
102
{ACAD_REACTORS
330
C
102
}
330
C
100
AcDbDictionary
281
     1
  3
Normal
350
F
100
AcDbDictionaryWithDefault
340
F
  0
DICTIONARY
  5
4A
102
{ACAD_REACTORS
330
C
102
}
330
C
100
AcDbDictionary
281
     1
  0
DICTIONARY
  5
2A
102
{ACAD_REACTORS
330
C
102
}
330
C
100
AcDbDictionary
281
     1
  3
2dWireframe
350
2F
  3
3D Hidden
350
31
  3
3dWireframe
350
30
  3
Basic
350
32
  3
Brighten
350
36
  3
ColorChange
350
3A
  3
Conceptual
350
34
  3
Dim
350
35
  3
Facepattern
350
39
  3
Flat
350
2B
  3
FlatWithEdges
350
2C
  3
Gouraud
350
2D
  3
GouraudWithEdges
350
2E
  3
Linepattern
350
38
  3
Realistic
350
33
  3
Thicken
350
37
  0
LAYOUT
  5
1E
102
{ACAD_REACTORS
330
1A
102
}
330
1A
100
AcDbPlotSettings
  1

  2
none_device
  4

  6

 40
0.0
 41
0.0
 42
0.0
 43
0.0
 44
0.0
 45
0.0
 46
0.0
 47
0.0
 48
0.0
 49
0.0
140
0.0
141
0.0
142
1.0
143
1.0
 70
   688
 72
     0
 73
     0
 74
     5
  7

 75
    16
 76
     0
 77
     2
 78
   300
147
1.0
148
0.0
149
0.0
100
AcDbLayout
  1
Layout1
 70
     1
 71
     1
 10
0.0
 20
0.0
 11
12.0
 21
9.0
 12
0.0
 22
0.0
 32
0.0
 14
1.000000000000000E+20
 24
1.000000000000000E+20
 34
1.000000000000000E+20
 15
-1.000000000000000E+20
 25
-1.000000000000000E+20
 35
-1.000000000000000E+20
146
0.0
 13
0.0
 23
0.0
 33
0.0
 16
1.0
 26
0.0
 36
0.0
 17
0.0
 27
1.0
 37
0.0
 76
     0
330
1B
  0
LAYOUT
  5
26
102
{ACAD_REACTORS
330
1A
102
}
330
1A
100
AcDbPlotSettings
  1

  2
none_device
  4

  6

 40
0.0
 41
0.0
 42
0.0
 43
0.0
 44
0.0
 45
0.0
 46
0.0
 47
0.0
 48
0.0
 49
0.0
140
0.0
141
0.0
142
1.0
143
1.0
 70
   688
 72
     0
 73
     0
 74
     5
  7

 75
    16
 76
     0
 77
     2
 78
   300
147
1.0
148
0.0
149
0.0
100
AcDbLayout
  1
Layout2
 70
     1
 71
     2
 10
0.0
 20
0.0
 11
0.0
 21
0.0
 12
0.0
 22
0.0
 32
0.0
 14
0.0
 24
0.0
 34
0.0
 15
0.0
 25
0.0
 35
0.0
146
0.0
 13
0.0
 23
0.0
 33
0.0
 16
1.0
 26
0.0
 36
0.0
 17
0.0
 27
1.0
 37
0.0
 76
     0
330
23
  0
LAYOUT
  5
22
102
{ACAD_REACTORS
330
1A
102
}
330
1A
100
AcDbPlotSettings
  1

  2
none_device
  4

  6

 40
0.0
 41
0.0
 42
0.0
 43
0.0
 44
0.0
 45
0.0
 46
0.0
 47
0.0
 48
0.0
 49
0.0
140
0.0
141
0.0
142
1.0
143
1.0
 70
  1712
 72
     0
 73
     0
 74
     0
  7

 75
     0
 76
     0
 77
     2
 78
   300
147
1.0
148
0.0
149
0.0
100
AcDbLayout
  1
Model
 70
     1
 71
     0
 10
0.0
 20
0.0
 11
12.0
 21
9.0
 12
0.0
 22
0.0
 32
0.0
 14
1.000000000000000E+20
 24
1.000000000000000E+20
 34
1.000000000000000E+20
 15
-1.000000000000000E+20
 25
-1.000000000000000E+20
 35
-1.000000000000000E+20
146
0.0
 13
0.0
 23
0.0
 33
0.0
 16
1.0
 26
0.0
 36
0.0
 17
0.0
 27
1.0
 37
0.0
 76
     0
330
1F
331
29
  0
MATERIAL
  5
3D
102
{ACAD_REACTORS
330
3B
102
}
330
3B
100
AcDbMaterial
  1
ByBlock
 72
     1
 94
      127
  0
MATERIAL
  5
3C
102
{ACAD_REACTORS
330
3B
102
}
330
3B
100
AcDbMaterial
  1
ByLayer
 72
     1
 94
      127
  0
MATERIAL
  5
3E
102
{ACAD_REACTORS
330
3B
102
}
330
3B
100
AcDbMaterial
  1
Global
 72
     1
 94
      127
  0
MLINESTYLE
  5
18
102
{ACAD_REACTORS
330
17
102
}
330
17
100
AcDbMlineStyle
  2
Standard
 70
     0
  3

 62
   256
 51
90.0
 52
90.0
 71
     2
 49
0.5
 62
   256
  6
BYLAYER
 49
-0.5
 62
   256
  6
BYLAYER
  0
ACDBPLACEHOLDER
  5
F
102
{ACAD_REACTORS
330
E
102
}
330
E
  0
VISUALSTYLE
  5
2F
102
{ACAD_REACTORS
330
2A
102
}
330
2A
100
AcDbVisualStyle
  2
2dWireframe
 70
     4
177
     2
291
     0
 71
     0
176
     1
 72
     2
176
     1
 73
     0
176
     1
 90
        0
176
     1
 40
-0.6
176
     1
 41
-30.0
176
     1
 62
     5
 63
     7
421
 16777215
176
     1
 74
     1
176
     1
 91
        4
176
     1
 64
     7
176
     1
 65
   257
176
     1
 75
     1
176
     1
175
     1
176
     1
 42
1.0
176
     1
 92
        0
176
     1
 66
   257
176
     1
 43
1.0
176
     1
 76
     1
176
     1
 77
     6
176
     1
 78
     2
176
     1
 67
     7
176
     1
 79
     5
176
     1
170
     0
176
     1
171
     0
176
     1
290
     0
176
     1
 93
        1
176
     1
 44
0.0
176
     1
173
     0
176
     1
  0
VISUALSTYLE
  5
31
102
{ACAD_REACTORS
330
2A
102
}
330
2A
100
AcDbVisualStyle
  2
3D Hidden
 70
     6
177
     2
291
     0
 71
     1
176
     1
 72
     2
176
     1
 73
     2
176
     1
 90
        0
176
     1
 40
-0.6
176
     1
 41
-30.0
176
     1
 62
     5
 63
     7
421
 16777215
176
     1
 74
     2
176
     1
 91
        2
176
     1
 64
     7
176
     1
 65
   257
176
     1
 75
     2
176
     1
175
     1
176
     1
 42
40.0
176
     1
 92
        0
176
     1
 66
   257
176
     1
 43
1.0
176
     1
 76
     1
176
     1
 77
     6
176
     1
 78
     2
176
     1
 67
     7
176
     1
 79
     3
176
     1
170
     0
176
     1
171
     0
176
     1
290
     0
176
     1
 93
        1
176
     1
 44
0.0
176
     1
173
     0
176
     1
  0
VISUALSTYLE
  5
30
102
{ACAD_REACTORS
330
2A
102
}
330
2A
100
AcDbVisualStyle
  2
3dWireframe
 70
     5
177
     2
291
     0
 71
     0
176
     1
 72
     2
176
     1
 73
     0
176
     1
 90
        0
176
     1
 40
-0.6
176
     1
 41
-30.0
176
     1
 62
     5
 63
     7
421
 16777215
176
     1
 74
     1
176
     1
 91
        4
176
     1
 64
     7
176
     1
 65
   257
176
     1
 75
     1
176
     1
175
     1
176
     1
 42
1.0
176
     1
 92
        0
176
     1
 66
   257
176
     1
 43
1.0
176
     1
 76
     1
176
     1
 77
     6
176
     1
 78
     2
176
     1
 67
     7
176
     1
 79
     5
176
     1
170
     0
176
     1
171
     0
176
     1
290
     0
176
     1
 93
        1
176
     1
 44
0.0
176
     1
173
     0
176
     1
  0
VISUALSTYLE
  5
32
102
{ACAD_REACTORS
330
2A
102
}
330
2A
100
AcDbVisualStyle
  2
Basic
 70
     7
177
     2
291
     1
 71
     1
176
     1
 72
     0
176
     1
 73
     1
176
     1
 90
        0
176
     1
 40
-0.6
176
     1
 41
-30.0
176
     1
 62
     5
 63
     7
421
 16777215
176
     1
 74
     0
176
     1
 91
        4
176
     1
 64
     7
176
     1
 65
   257
176
     1
 75
     1
176
     1
175
     1
176
     1
 42
1.0
176
     1
 92
        8
176
     1
 66
     7
176
     1
 43
1.0
176
     1
 76
     1
176
     1
 77
     6
176
     1
 78
     2
176
     1
 67
     7
176
     1
 79
     5
176
     1
170
     0
176
     1
171
     0
176
     1
290
     0
176
     1
 93
        1
176
     1
 44
0.0
176
     1
173
     0
176
     1
  0
VISUALSTYLE
  5
36
102
{ACAD_REACTORS
330
2A
102
}
330
2A
100
AcDbVisualStyle
  2
Brighten
 70
    12
177
     2
291
     1
 71
     2
176
     1
 72
     2
176
     1
 73
     0
176
     1
 90
        0
176
     1
 40
-0.6
176
     1
 41
-30.0
176
     1
 62
     5
 63
     7
421
 16777215
176
     1
 74
     1
176
     1
 91
        4
176
     1
 64
     7
176
     1
 65
   257
176
     1
 75
     1
176
     1
175
     1
176
     1
 42
1.0
176
     1
 92
        8
176
     1
 66
     7
176
     1
 43
1.0
176
     1
 76
     1
176
     1
 77
     6
176
     1
 78
     2
176
     1
 67
     7
176
     1
 79
     5
176
     1
170
     0
176
     1
171
     0
176
     1
290
     0
176
     1
 93
        1
176
     1
 44
50.0
176
     1
173
     0
176
     1
  0
VISUALSTYLE
  5
3A
102
{ACAD_REACTORS
330
2A
102
}
330
2A
100
AcDbVisualStyle
  2
ColorChange
 70
    16
177
     2
291
     1
 71
     2
176
     1
 72
     2
176
     1
 73
     3
176
     1
 90
        0
176
     1
 40
-0.6
176
     1
 41
-30.0
176
     1
 62
     5
 63
     8
421
  8421504
176
     1
 74
     1
176
     1
 91
        4
176
     1
 64
     7
176
     1
 65
   257
176
     1
 75
     1
176
     1
175
     1
176
     1
 42
1.0
176
     1
 92
        8
176
     1
 66
     8
424
  8421504
176
     1
 43
1.0
176
     1
 76
     1
176
     1
 77
     6
176
     1
 78
     2
176
     1
 67
     7
176
     1
 79
     5
176
     1
170
     0
176
     1
171
     0
176
     1
290
     0
176
     1
 93
        1
176
     1
 44
0.0
176
     1
173
     0
176
     1
  0
VISUALSTYLE
  5
34
102
{ACAD_REACTORS
330
2A
102
}
330
2A
100
AcDbVisualStyle
  2
Conceptual
 70
     9
177
     2
291
     0
 71
     3
176
     1
 72
     2
176
     1
 73
     0
176
     1
 90
        0
176
     1
 40
-0.6
176
     1
 41
-30.0
176
     1
 62
     5
 63
     7
421
 16777215
176
     1
 74
     2
176
     1
 91
        2
176
     1
 64
     7
176
     1
 65
   257
176
     1
 75
     1
176
     1
175
     1
176
     1
 42
40.0
176
     1
 92
        8
176
     1
 66
     7
176
     1
 43
1.0
176
     1
 76
     1
176
     1
 77
     6
176
     1
 78
     2
176
     1
 67
     7
176
     1
 79
     3
176
     1
170
     0
176
     1
171
     0
176
     1
290
     0
176
     1
 93
        1
176
     1
 44
0.0
176
     1
173
     0
176
     1
  0
VISUALSTYLE
  5
35
102
{ACAD_REACTORS
330
2A
102
}
330
2A
100
AcDbVisualStyle
  2
Dim
 70
    11
177
     2
291
     1
 71
     2
176
     1
 72
     2
176
     1
 73
     0
176
     1
 90
        0
176
     1
 40
-0.6
176
     1
 41
-30.0
176
     1
 62
     5
 63
     7
421
 16777215
176
     1
 74
     1
176
     1
 91
        4
176
     1
 64
     7
176
     1
 65
   257
176
     1
 75
     1
176
     1
175
     1
176
     1
 42
1.0
176
     1
 92
        8
176
     1
 66
     7
176
     1
 43
1.0
176
     1
 76
     1
176
     1
 77
     6
176
     1
 78
     2
176
     1
 67
     7
176
     1
 79
     5
176
     1
170
     0
176
     1
171
     0
176
     1
290
     0
176
     1
 93
        1
176
     1
 44
-50.0
176
     1
173
     0
176
     1
  0
VISUALSTYLE
  5
39
102
{ACAD_REACTORS
330
2A
102
}
330
2A
100
AcDbVisualStyle
  2
Facepattern
 70
    15
177
     2
291
     1
 71
     2
176
     1
 72
     2
176
     1
 73
     0
176
     1
 90
        0
176
     1
 40
-0.6
176
     1
 41
-30.0
176
     1
 62
     5
 63
     7
421
 16777215
176
     1
 74
     1
176
     1
 91
        4
176
     1
 64
     7
176
     1
 65
   257
176
     1
 75
     1
176
     1
175
     1
176
     1
 42
1.0
176
     1
 92
        8
176
     1
 66
     7
176
     1
 43
1.0
176
     1
 76
     1
176
     1
 77
     6
176
     1
 78
     2
176
     1
 67
     7
176
     1
 79
     5
176
     1
170
     0
176
     1
171
     0
176
     1
290
     0
176
     1
 93
        1
176
     1
 44
0.0
176
     1
173
     0
176
     1
  0
VISUALSTYLE
  5
2B
102
{ACAD_REACTORS
330
2A
102
}
330
2A
100
AcDbVisualStyle
  2
Flat
 70
     0
177
     2
291
     1
 71
     2
176
     1
 72
     1
176
     1
 73
     1
176
     1
 90
        2
176
     1
 40
-0.6
176
     1
 41
30.0
176
     1
 62
     5
 63
     7
421
 16777215
176
     1
 74
     0
176
     1
 91
        4
176
     1
 64
     7
176
     1
 65
   257
176
     1
 75
     1
176
     1
175
     1
176
     1
 42
1.0
176
     1
 92
        8
176
     1
 66
     7
176
     1
 43
1.0
176
     1
 76
     1
176
     1
 77
     6
176
     1
 78
     2
176
     1
 67
     7
176
     1
 79
     5
176
     1
170
     0
176
     1
171
     0
176
     1
290
     0
176
     1
 93
       13
176
     1
 44
0.0
176
     1
173
     0
176
     1
  0
VISUALSTYLE
  5
2C
102
{ACAD_REACTORS
330
2A
102
}
330
2A
100
AcDbVisualStyle
  2
FlatWithEdges
 70
     1
177
     2
291
     1
 71
     2
176
     1
 72
     1
176
     1
 73
     1
176
     1
 90
        2
176
     1
 40
-0.6
176
     1
 41
30.0
176
     1
 62
     5
 63
     7
421
 16777215
176
     1
 74
     1
176
     1
 91
        4
176
     1
 64
     7
176
     1
 65
   257
176
     1
 75
     1
176
     1
175
     1
176
     1
 42
1.0
176
     1
 92
        0
176
     1
 66
   257
176
     1
 43
1.0
176
     1
 76
     1
176
     1
 77
     6
176
     1
 78
     2
176
     1
 67
     7
176
     1
 79
     5
176
     1
170
     0
176
     1
171
     0
176
     1
290
     0
176
     1
 93
       13
176
     1
 44
0.0
176
     1
173
     0
176
     1
  0
VISUALSTYLE
  5
2D
102
{ACAD_REACTORS
330
2A
102
}
330
2A
100
AcDbVisualStyle
  2
Gouraud
 70
     2
177
     2
291
     1
 71
     2
176
     1
 72
     2
176
     1
 73
     1
176
     1
 90
        2
176
     1
 40
-0.6
176
     1
 41
30.0
176
     1
 62
     5
 63
     7
421
 16777215
176
     1
 74
     0
176
     1
 91
        4
176
     1
 64
     7
176
     1
 65
   257
176
     1
 75
     1
176
     1
175
     1
176
     1
 42
1.0
176
     1
 92
        0
176
     1
 66
     7
176
     1
 43
1.0
176
     1
 76
     1
176
     1
 77
     6
176
     1
 78
     2
176
     1
 67
     7
176
     1
 79
     5
176
     1
170
     0
176
     1
171
     0
176
     1
290
     0
176
     1
 93
       13
176
     1
 44
0.0
176
     1
173
     0
176
     1
  0
VISUALSTYLE
  5
2E
102
{ACAD_REACTORS
330
2A
102
}
330
2A
100
AcDbVisualStyle
  2
GouraudWithEdges
 70
     3
177
     2
291
     1
 71
     2
176
     1
 72
     2
176
     1
 73
     1
176
     1
 90
        2
176
     1
 40
-0.6
176
     1
 41
30.0
176
     1
 62
     5
 63
     7
421
 16777215
176
     1
 74
     1
176
     1
 91
        4
176
     1
 64
     7
176
     1
 65
   257
176
     1
 75
     1
176
     1
175
     1
176
     1
 42
1.0
176
     1
 92
        0
176
     1
 66
   257
176
     1
 43
1.0
176
     1
 76
     1
176
     1
 77
     6
176
     1
 78
     2
176
     1
 67
     7
176
     1
 79
     5
176
     1
170
     0
176
     1
171
     0
176
     1
290
     0
176
     1
 93
       13
176
     1
 44
0.0
176
     1
173
     0
176
     1
  0
VISUALSTYLE
  5
38
102
{ACAD_REACTORS
330
2A
102
}
330
2A
100
AcDbVisualStyle
  2
Linepattern
 70
    14
177
     2
291
     1
 71
     2
176
     1
 72
     2
176
     1
 73
     0
176
     1
 90
        0
176
     1
 40
-0.6
176
     1
 41
-30.0
176
     1
 62
     5
 63
     7
421
 16777215
176
     1
 74
     1
176
     1
 91
        4
176
     1
 64
     7
176
     1
 65
   257
176
     1
 75
     7
176
     1
175
     7
176
     1
 42
1.0
176
     1
 92
        8
176
     1
 66
     7
176
     1
 43
1.0
176
     1
 76
     1
176
     1
 77
     6
176
     1
 78
     2
176
     1
 67
     7
176
     1
 79
     5
176
     1
170
     0
176
     1
171
     0
176
     1
290
     0
176
     1
 93
        1
176
     1
 44
0.0
176
     1
173
     0
176
     1
  0
VISUALSTYLE
  5
33
102
{ACAD_REACTORS
330
2A
102
}
330
2A
100
AcDbVisualStyle
  2
Realistic
 70
     8
177
     2
291
     0
 71
     2
176
     1
 72
     2
176
     1
 73
     0
176
     1
 90
        0
176
     1
 40
-0.6
176
     1
 41
-30.0
176
     1
 62
     5
 63
     7
421
 16777215
176
     1
 74
     1
176
     1
 91
        0
176
     1
 64
     7
176
     1
 65
   257
176
     1
 75
     1
176
     1
175
     1
176
     1
 42
1.0
176
     1
 92
        8
176
     1
 66
     8
424
  7895160
176
     1
 43
1.0
176
     1
 76
     1
176
     1
 77
     6
176
     1
 78
     2
176
     1
 67
     7
176
     1
 79
     5
176
     1
170
     0
176
     1
171
     0
176
     1
290
     0
176
     1
 93
       13
176
     1
 44
0.0
176
     1
173
     0
176
     1
  0
VISUALSTYLE
  5
37
102
{ACAD_REACTORS
330
2A
102
}
330
2A
100
AcDbVisualStyle
  2
Thicken
 70
    13
177
     2
291
     1
 71
     2
176
     1
 72
     2
176
     1
 73
     0
176
     1
 90
        0
176
     1
 40
-0.6
176
     1
 41
-30.0
176
     1
 62
     5
 63
     7
421
 16777215
176
     1
 74
     1
176
     1
 91
        4
176
     1
 64
     7
176
     1
 65
   257
176
     1
 75
     1
176
     1
175
     1
176
     1
 42
1.0
176
     1
 92
       12
176
     1
 66
     7
176
     1
 43
1.0
176
     1
 76
     1
176
     1
 77
     6
176
     1
 78
     2
176
     1
 67
     7
176
     1
 79
     5
176
     1
170
     0
176
     1
171
     0
176
     1
290
     0
176
     1
 93
        1
176
     1
 44
0.0
176
     1
173
     0
176
     1
  0
ENDSEC
  0
EOF
